<svg width="2500" height="750" viewBox="0 0 2500 750" fill="none" xmlns="http://www.w3.org/2000/svg">
<path d="M249.562 361.5L206.362 318.3L249.562 275.1L263.062 288.51L232.282 318.3L263.062 348.09L249.562 361.5ZM492.149 361.5L478.739 348.09L509.429 318.3L478.739 288.51L492.149 275.1L535.439 318.3L492.149 361.5ZM664.119 377.7C651.159 377.7 640.059 374.88 630.819 369.24C621.579 363.54 614.469 355.62 609.489 345.48C604.569 335.34 602.109 323.58 602.109 310.2C602.109 296.82 604.569 285.06 609.489 274.92C614.469 264.78 621.579 256.89 630.819 251.25C640.059 245.55 651.159 242.7 664.119 242.7C679.059 242.7 691.509 246.45 701.469 253.95C711.429 261.39 718.419 271.44 722.439 284.1L700.569 290.13C698.049 281.67 693.759 275.07 687.699 270.33C681.639 265.53 673.779 263.13 664.119 263.13C655.419 263.13 648.159 265.08 642.339 268.98C636.579 272.88 632.229 278.37 629.289 285.45C626.409 292.47 624.939 300.72 624.879 310.2C624.879 319.68 626.319 327.96 629.199 335.04C632.139 342.06 636.519 347.52 642.339 351.42C648.159 355.32 655.419 357.27 664.119 357.27C673.779 357.27 681.639 354.87 687.699 350.07C693.759 345.27 698.049 338.67 700.569 330.27L722.439 336.3C718.419 348.96 711.429 359.04 701.469 366.54C691.509 373.98 679.059 377.7 664.119 377.7ZM785.13 377.7C775.41 377.7 766.92 375.51 759.66 371.13C752.4 366.75 746.76 360.72 742.74 353.04C738.78 345.3 736.8 336.42 736.8 326.4C736.8 316.2 738.84 307.26 742.92 299.58C747 291.9 752.67 285.9 759.93 281.58C767.19 277.26 775.59 275.1 785.13 275.1C794.91 275.1 803.43 277.29 810.69 281.67C817.95 286.05 823.59 292.11 827.61 299.85C831.63 307.53 833.64 316.38 833.64 326.4C833.64 336.48 831.6 345.39 827.52 353.13C823.5 360.81 817.86 366.84 810.6 371.22C803.34 375.54 794.85 377.7 785.13 377.7ZM785.13 357.36C793.77 357.36 800.19 354.48 804.39 348.72C808.59 342.96 810.69 335.52 810.69 326.4C810.69 316.98 808.56 309.48 804.3 303.9C800.04 298.26 793.65 295.44 785.13 295.44C779.31 295.44 774.51 296.76 770.73 299.4C767.01 301.98 764.25 305.61 762.45 310.29C760.65 314.91 759.75 320.28 759.75 326.4C759.75 335.82 761.88 343.35 766.14 348.99C770.46 354.57 776.79 357.36 785.13 357.36ZM892.439 377.7C883.499 377.7 875.699 375.45 869.039 370.95C862.379 366.45 857.219 360.33 853.559 352.59C849.899 344.85 848.069 336.12 848.069 326.4C848.069 316.56 849.899 307.8 853.559 300.12C857.279 292.38 862.529 286.29 869.309 281.85C876.089 277.35 884.069 275.1 893.249 275.1C902.489 275.1 910.229 277.35 916.469 281.85C922.769 286.29 927.539 292.38 930.779 300.12C934.019 307.86 935.639 316.62 935.639 326.4C935.639 336.06 934.019 344.79 930.779 352.59C927.539 360.33 922.709 366.45 916.289 370.95C909.869 375.45 901.919 377.7 892.439 377.7ZM895.769 358.26C901.589 358.26 906.269 356.94 909.809 354.3C913.409 351.6 916.019 347.85 917.639 343.05C919.319 338.25 920.159 332.7 920.159 326.4C920.159 320.04 919.319 314.49 917.639 309.75C916.019 304.95 913.469 301.23 909.989 298.59C906.509 295.89 902.009 294.54 896.489 294.54C890.669 294.54 885.869 295.98 882.089 298.86C878.309 301.68 875.519 305.52 873.719 310.38C871.919 315.18 871.019 320.52 871.019 326.4C871.019 332.34 871.889 337.74 873.629 342.6C875.429 347.4 878.159 351.21 881.819 354.03C885.479 356.85 890.129 358.26 895.769 358.26ZM920.159 375V306.78H917.459V245.4H939.329V375H920.159ZM1008.75 377.7C998.913 377.7 990.273 375.57 982.833 371.31C975.393 367.05 969.573 361.14 965.373 353.58C961.233 346.02 959.163 337.32 959.163 327.48C959.163 316.86 961.203 307.65 965.283 299.85C969.363 291.99 975.033 285.9 982.293 281.58C989.553 277.26 997.953 275.1 1007.49 275.1C1017.57 275.1 1026.12 277.47 1033.14 282.21C1040.22 286.89 1045.47 293.52 1048.89 302.1C1052.31 310.68 1053.6 320.79 1052.76 332.43H1031.25V324.51C1031.19 313.95 1029.33 306.24 1025.67 301.38C1022.01 296.52 1016.25 294.09 1008.39 294.09C999.513 294.09 992.913 296.85 988.593 302.37C984.273 307.83 982.113 315.84 982.113 326.4C982.113 336.24 984.273 343.86 988.593 349.26C992.913 354.66 999.213 357.36 1007.49 357.36C1012.83 357.36 1017.42 356.19 1021.26 353.85C1025.16 351.45 1028.16 348 1030.26 343.5L1051.68 349.98C1047.96 358.74 1042.2 365.55 1034.4 370.41C1026.66 375.27 1018.11 377.7 1008.75 377.7ZM975.273 332.43V316.05H1042.14V332.43H975.273ZM1119.55 377.7C1110.07 377.7 1102.12 375.45 1095.7 370.95C1089.28 366.45 1084.45 360.33 1081.21 352.59C1077.97 344.79 1076.35 336.06 1076.35 326.4C1076.35 316.62 1077.97 307.86 1081.21 300.12C1084.45 292.38 1089.19 286.29 1095.43 281.85C1101.73 277.35 1109.5 275.1 1118.74 275.1C1127.92 275.1 1135.87 277.35 1142.59 281.85C1149.37 286.29 1154.62 292.38 1158.34 300.12C1162.06 307.8 1163.92 316.56 1163.92 326.4C1163.92 336.12 1162.09 344.85 1158.43 352.59C1154.77 360.33 1149.61 366.45 1142.95 370.95C1136.29 375.45 1128.49 377.7 1119.55 377.7ZM1072.66 375V245.4H1094.53V306.78H1091.83V375H1072.66ZM1116.22 358.26C1121.86 358.26 1126.51 356.85 1130.17 354.03C1133.83 351.21 1136.53 347.4 1138.27 342.6C1140.07 337.74 1140.97 332.34 1140.97 326.4C1140.97 320.52 1140.07 315.18 1138.27 310.38C1136.47 305.52 1133.68 301.68 1129.9 298.86C1126.12 295.98 1121.32 294.54 1115.5 294.54C1109.98 294.54 1105.48 295.89 1102 298.59C1098.52 301.23 1095.94 304.95 1094.26 309.75C1092.64 314.49 1091.83 320.04 1091.83 326.4C1091.83 332.7 1092.64 338.25 1094.26 343.05C1095.94 347.85 1098.55 351.6 1102.09 354.3C1105.69 356.94 1110.4 358.26 1116.22 358.26ZM1185.56 375V242.7H1207.25V375H1185.56ZM1277.14 377.7C1267.42 377.7 1258.93 375.51 1251.67 371.13C1244.41 366.75 1238.77 360.72 1234.75 353.04C1230.79 345.3 1228.81 336.42 1228.81 326.4C1228.81 316.2 1230.85 307.26 1234.93 299.58C1239.01 291.9 1244.68 285.9 1251.94 281.58C1259.2 277.26 1267.6 275.1 1277.14 275.1C1286.92 275.1 1295.44 277.29 1302.7 281.67C1309.96 286.05 1315.6 292.11 1319.62 299.85C1323.64 307.53 1325.65 316.38 1325.65 326.4C1325.65 336.48 1323.61 345.39 1319.53 353.13C1315.51 360.81 1309.87 366.84 1302.61 371.22C1295.35 375.54 1286.86 377.7 1277.14 377.7ZM1277.14 357.36C1285.78 357.36 1292.2 354.48 1296.4 348.72C1300.6 342.96 1302.7 335.52 1302.7 326.4C1302.7 316.98 1300.57 309.48 1296.31 303.9C1292.05 298.26 1285.66 295.44 1277.14 295.44C1271.32 295.44 1266.52 296.76 1262.74 299.4C1259.02 301.98 1256.26 305.61 1254.46 310.29C1252.66 314.91 1251.76 320.28 1251.76 326.4C1251.76 335.82 1253.89 343.35 1258.15 348.99C1262.47 354.57 1268.8 357.36 1277.14 357.36ZM1388.41 377.7C1378.69 377.7 1370.2 375.51 1362.94 371.13C1355.68 366.75 1350.04 360.72 1346.02 353.04C1342.06 345.3 1340.08 336.42 1340.08 326.4C1340.08 316.2 1342.12 307.26 1346.2 299.58C1350.28 291.9 1355.95 285.9 1363.21 281.58C1370.47 277.26 1378.87 275.1 1388.41 275.1C1398.19 275.1 1406.71 277.29 1413.97 281.67C1421.23 286.05 1426.87 292.11 1430.89 299.85C1434.91 307.53 1436.92 316.38 1436.92 326.4C1436.92 336.48 1434.88 345.39 1430.8 353.13C1426.78 360.81 1421.14 366.84 1413.88 371.22C1406.62 375.54 1398.13 377.7 1388.41 377.7ZM1388.41 357.36C1397.05 357.36 1403.47 354.48 1407.67 348.72C1411.87 342.96 1413.97 335.52 1413.97 326.4C1413.97 316.98 1411.84 309.48 1407.58 303.9C1403.32 298.26 1396.93 295.44 1388.41 295.44C1382.59 295.44 1377.79 296.76 1374.01 299.4C1370.29 301.98 1367.53 305.61 1365.73 310.29C1363.93 314.91 1363.03 320.28 1363.03 326.4C1363.03 335.82 1365.16 343.35 1369.42 348.99C1373.74 354.57 1380.07 357.36 1388.41 357.36ZM1573.48 375V315.96C1573.48 309.3 1571.83 304.11 1568.53 300.39C1565.23 296.61 1560.76 294.72 1555.12 294.72C1551.64 294.72 1548.52 295.53 1545.76 297.15C1543 298.71 1540.81 301.05 1539.19 304.17C1537.57 307.23 1536.76 310.89 1536.76 315.15L1527.13 309.48C1527.07 302.76 1528.57 296.85 1531.63 291.75C1534.75 286.59 1538.95 282.57 1544.23 279.69C1549.51 276.81 1555.39 275.37 1561.87 275.37C1572.61 275.37 1580.83 278.61 1586.53 285.09C1592.29 291.51 1595.17 299.97 1595.17 310.47V375H1573.48ZM1456.57 375V277.8H1475.74V307.95H1478.44V375H1456.57ZM1515.16 375V316.23C1515.16 309.45 1513.51 304.17 1510.21 300.39C1506.91 296.61 1502.41 294.72 1496.71 294.72C1491.19 294.72 1486.75 296.61 1483.39 300.39C1480.09 304.17 1478.44 309.09 1478.44 315.15L1468.72 308.67C1468.72 302.37 1470.28 296.7 1473.4 291.66C1476.52 286.62 1480.72 282.66 1486 279.78C1491.34 276.84 1497.31 275.37 1503.91 275.37C1511.17 275.37 1517.23 276.93 1522.09 280.05C1527.01 283.11 1530.67 287.31 1533.07 292.65C1535.53 297.93 1536.76 303.9 1536.76 310.56V375H1515.16ZM1702.65 377.7C1693.17 377.7 1684.62 376.05 1677 372.75C1669.44 369.45 1663.2 364.74 1658.28 358.62C1653.42 352.44 1650.33 345.12 1649.01 336.66L1671.51 333.24C1673.43 340.92 1677.36 346.86 1683.3 351.06C1689.3 355.26 1696.2 357.36 1704 357.36C1708.62 357.36 1712.97 356.64 1717.05 355.2C1721.13 353.76 1724.43 351.66 1726.95 348.9C1729.53 346.14 1730.82 342.75 1730.82 338.73C1730.82 336.93 1730.52 335.28 1729.92 333.78C1729.32 332.22 1728.42 330.84 1727.22 329.64C1726.08 328.44 1724.58 327.36 1722.72 326.4C1720.92 325.38 1718.82 324.51 1716.42 323.79L1682.94 313.89C1680.06 313.05 1676.94 311.94 1673.58 310.56C1670.28 309.12 1667.13 307.17 1664.13 304.71C1661.19 302.19 1658.76 299.01 1656.84 295.17C1654.98 291.27 1654.05 286.47 1654.05 280.77C1654.05 272.43 1656.15 265.44 1660.35 259.8C1664.61 254.1 1670.31 249.84 1677.45 247.02C1684.65 244.2 1692.63 242.82 1701.39 242.88C1710.27 242.94 1718.19 244.47 1725.15 247.47C1732.11 250.41 1737.93 254.7 1742.61 260.34C1747.29 265.98 1750.59 272.79 1752.51 280.77L1729.2 284.82C1728.24 280.26 1726.38 276.39 1723.62 273.21C1720.92 269.97 1717.59 267.51 1713.63 265.83C1709.73 264.15 1705.56 263.25 1701.12 263.13C1696.8 263.07 1692.78 263.73 1689.06 265.11C1685.4 266.43 1682.43 268.35 1680.15 270.87C1677.93 273.39 1676.82 276.33 1676.82 279.69C1676.82 282.87 1677.78 285.48 1679.7 287.52C1681.62 289.5 1683.99 291.09 1686.81 292.29C1689.69 293.43 1692.6 294.39 1695.54 295.17L1718.76 301.65C1721.94 302.49 1725.51 303.63 1729.47 305.07C1733.43 306.51 1737.24 308.52 1740.9 311.1C1744.56 313.68 1747.56 317.07 1749.9 321.27C1752.3 325.47 1753.5 330.81 1753.5 337.29C1753.5 344.01 1752.09 349.92 1749.27 355.02C1746.51 360.06 1742.76 364.26 1738.02 367.62C1733.28 370.98 1727.85 373.5 1721.73 375.18C1715.67 376.86 1709.31 377.7 1702.65 377.7ZM1829.95 375C1823.53 376.2 1817.23 376.71 1811.05 376.53C1804.93 376.41 1799.44 375.3 1794.58 373.2C1789.72 371.04 1786.03 367.65 1783.51 363.03C1781.29 358.83 1780.12 354.54 1780 350.16C1779.88 345.78 1779.82 340.83 1779.82 335.31V250.8H1801.42V334.05C1801.42 337.95 1801.45 341.37 1801.51 344.31C1801.63 347.25 1802.26 349.65 1803.4 351.51C1805.56 355.11 1809.01 357.12 1813.75 357.54C1818.49 357.96 1823.89 357.72 1829.95 356.82V375ZM1762.18 294.81V277.8H1829.95V294.81H1762.18ZM1887.3 377.79C1880.1 377.79 1874.16 376.59 1869.48 374.19C1864.8 371.79 1861.08 368.73 1858.32 365.01C1855.56 361.29 1853.52 357.33 1852.2 353.13C1850.88 348.93 1850.01 344.97 1849.59 341.25C1849.23 337.47 1849.05 334.41 1849.05 332.07V277.8H1871.01V324.6C1871.01 327.6 1871.22 330.99 1871.64 334.77C1872.06 338.49 1873.02 342.09 1874.52 345.57C1876.08 348.99 1878.36 351.81 1881.36 354.03C1884.42 356.25 1888.53 357.36 1893.69 357.36C1896.45 357.36 1899.18 356.91 1901.88 356.01C1904.58 355.11 1907.01 353.58 1909.17 351.42C1911.39 349.2 1913.16 346.17 1914.48 342.33C1915.8 338.49 1916.46 333.63 1916.46 327.75L1929.33 333.24C1929.33 341.52 1927.71 349.02 1924.47 355.74C1921.29 362.46 1916.58 367.83 1910.34 371.85C1904.1 375.81 1896.42 377.79 1887.3 377.79ZM1919.07 375V344.85H1916.46V277.8H1938.24V375H1919.07ZM2002.5 377.7C1993.56 377.7 1985.76 375.45 1979.1 370.95C1972.44 366.45 1967.28 360.33 1963.62 352.59C1959.96 344.85 1958.13 336.12 1958.13 326.4C1958.13 316.56 1959.96 307.8 1963.62 300.12C1967.34 292.38 1972.59 286.29 1979.37 281.85C1986.15 277.35 1994.13 275.1 2003.31 275.1C2012.55 275.1 2020.29 277.35 2026.53 281.85C2032.83 286.29 2037.6 292.38 2040.84 300.12C2044.08 307.86 2045.7 316.62 2045.7 326.4C2045.7 336.06 2044.08 344.79 2040.84 352.59C2037.6 360.33 2032.77 366.45 2026.35 370.95C2019.93 375.45 2011.98 377.7 2002.5 377.7ZM2005.83 358.26C2011.65 358.26 2016.33 356.94 2019.87 354.3C2023.47 351.6 2026.08 347.85 2027.7 343.05C2029.38 338.25 2030.22 332.7 2030.22 326.4C2030.22 320.04 2029.38 314.49 2027.7 309.75C2026.08 304.95 2023.53 301.23 2020.05 298.59C2016.57 295.89 2012.07 294.54 2006.55 294.54C2000.73 294.54 1995.93 295.98 1992.15 298.86C1988.37 301.68 1985.58 305.52 1983.78 310.38C1981.98 315.18 1981.08 320.52 1981.08 326.4C1981.08 332.34 1981.95 337.74 1983.69 342.6C1985.49 347.4 1988.22 351.21 1991.88 354.03C1995.54 356.85 2000.19 358.26 2005.83 358.26ZM2030.22 375V306.78H2027.52V245.4H2049.39V375H2030.22ZM2076.42 263.04V243.15H2098.11V263.04H2076.42ZM2076.42 375V277.8H2098.11V375H2076.42ZM2168 377.7C2158.28 377.7 2149.79 375.51 2142.53 371.13C2135.27 366.75 2129.63 360.72 2125.61 353.04C2121.65 345.3 2119.67 336.42 2119.67 326.4C2119.67 316.2 2121.71 307.26 2125.79 299.58C2129.87 291.9 2135.54 285.9 2142.8 281.58C2150.06 277.26 2158.46 275.1 2168 275.1C2177.78 275.1 2186.3 277.29 2193.56 281.67C2200.82 286.05 2206.46 292.11 2210.48 299.85C2214.5 307.53 2216.51 316.38 2216.51 326.4C2216.51 336.48 2214.47 345.39 2210.39 353.13C2206.37 360.81 2200.73 366.84 2193.47 371.22C2186.21 375.54 2177.72 377.7 2168 377.7ZM2168 357.36C2176.64 357.36 2183.06 354.48 2187.26 348.72C2191.46 342.96 2193.56 335.52 2193.56 326.4C2193.56 316.98 2191.43 309.48 2187.17 303.9C2182.91 298.26 2176.52 295.44 2168 295.44C2162.18 295.44 2157.38 296.76 2153.6 299.4C2149.88 301.98 2147.12 305.61 2145.32 310.29C2143.52 314.91 2142.62 320.28 2142.62 326.4C2142.62 335.82 2144.75 343.35 2149.01 348.99C2153.33 354.57 2159.66 357.36 2168 357.36ZM2271.59 377.7C2259.59 377.7 2249.84 375 2242.34 369.6C2234.84 364.2 2230.28 356.61 2228.66 346.83L2250.8 343.41C2251.94 348.21 2254.46 351.99 2258.36 354.75C2262.26 357.51 2267.18 358.89 2273.12 358.89C2278.34 358.89 2282.36 357.87 2285.18 355.83C2288.06 353.73 2289.5 350.88 2289.5 347.28C2289.5 345.06 2288.96 343.29 2287.88 341.97C2286.86 340.59 2284.58 339.27 2281.04 338.01C2277.5 336.75 2272.07 335.16 2264.75 333.24C2256.59 331.08 2250.11 328.77 2245.31 326.31C2240.51 323.79 2237.06 320.82 2234.96 317.4C2232.86 313.98 2231.81 309.84 2231.81 304.98C2231.81 298.92 2233.4 293.64 2236.58 289.14C2239.76 284.64 2244.2 281.19 2249.9 278.79C2255.6 276.33 2262.32 275.1 2270.06 275.1C2277.62 275.1 2284.31 276.27 2290.13 278.61C2296.01 280.95 2300.75 284.28 2304.35 288.6C2307.95 292.92 2310.17 297.99 2311.01 303.81L2288.87 307.77C2288.33 303.63 2286.44 300.36 2283.2 297.96C2280.02 295.56 2275.76 294.21 2270.42 293.91C2265.32 293.61 2261.21 294.39 2258.09 296.25C2254.97 298.05 2253.41 300.6 2253.41 303.9C2253.41 305.76 2254.04 307.35 2255.3 308.67C2256.56 309.99 2259.08 311.31 2262.86 312.63C2266.7 313.95 2272.4 315.57 2279.96 317.49C2287.7 319.47 2293.88 321.75 2298.5 324.33C2303.18 326.85 2306.54 329.88 2308.58 333.42C2310.68 336.96 2311.73 341.25 2311.73 346.29C2311.73 356.07 2308.16 363.75 2301.02 369.33C2293.94 374.91 2284.13 377.7 2271.59 377.7Z" fill="black"/>
<path d="M377.342 245.4H399.122L364.562 375H342.782L377.342 245.4Z" fill="white"/>
</svg>
