<svg width="2144" height="801" viewBox="0 0 2144 801" fill="none" xmlns="http://www.w3.org/2000/svg">
<path d="M951.242 349.7C938.282 349.7 927.182 346.88 917.942 341.24C908.702 335.54 901.592 327.62 896.612 317.48C891.692 307.34 889.232 295.58 889.232 282.2C889.232 268.82 891.692 257.06 896.612 246.92C901.592 236.78 908.702 228.89 917.942 223.25C927.182 217.55 938.282 214.7 951.242 214.7C966.182 214.7 978.632 218.45 988.592 225.95C998.552 233.39 1005.54 243.44 1009.56 256.1L987.692 262.13C985.172 253.67 980.882 247.07 974.822 242.33C968.762 237.53 960.902 235.13 951.242 235.13C942.542 235.13 935.282 237.08 929.462 240.98C923.702 244.88 919.352 250.37 916.412 257.45C913.532 264.47 912.062 272.72 912.002 282.2C912.002 291.68 913.442 299.96 916.322 307.04C919.262 314.06 923.642 319.52 929.462 323.42C935.282 327.32 942.542 329.27 951.242 329.27C960.902 329.27 968.762 326.87 974.822 322.07C980.882 317.27 985.172 310.67 987.692 302.27L1009.56 308.3C1005.54 320.96 998.552 331.04 988.592 338.54C978.632 345.98 966.182 349.7 951.242 349.7ZM1072.25 349.7C1062.53 349.7 1054.04 347.51 1046.78 343.13C1039.52 338.75 1033.88 332.72 1029.86 325.04C1025.9 317.3 1023.92 308.42 1023.92 298.4C1023.92 288.2 1025.96 279.26 1030.04 271.58C1034.12 263.9 1039.79 257.9 1047.05 253.58C1054.31 249.26 1062.71 247.1 1072.25 247.1C1082.03 247.1 1090.55 249.29 1097.81 253.67C1105.07 258.05 1110.71 264.11 1114.73 271.85C1118.75 279.53 1120.76 288.38 1120.76 298.4C1120.76 308.48 1118.72 317.39 1114.64 325.13C1110.62 332.81 1104.98 338.84 1097.72 343.22C1090.46 347.54 1081.97 349.7 1072.25 349.7ZM1072.25 329.36C1080.89 329.36 1087.31 326.48 1091.51 320.72C1095.71 314.96 1097.81 307.52 1097.81 298.4C1097.81 288.98 1095.68 281.48 1091.42 275.9C1087.16 270.26 1080.77 267.44 1072.25 267.44C1066.43 267.44 1061.63 268.76 1057.85 271.4C1054.13 273.98 1051.37 277.61 1049.57 282.29C1047.77 286.91 1046.87 292.28 1046.87 298.4C1046.87 307.82 1049 315.35 1053.26 320.99C1057.58 326.57 1063.91 329.36 1072.25 329.36ZM1179.56 349.7C1170.62 349.7 1162.82 347.45 1156.16 342.95C1149.5 338.45 1144.34 332.33 1140.68 324.59C1137.02 316.85 1135.19 308.12 1135.19 298.4C1135.19 288.56 1137.02 279.8 1140.68 272.12C1144.4 264.38 1149.65 258.29 1156.43 253.85C1163.21 249.35 1171.19 247.1 1180.37 247.1C1189.61 247.1 1197.35 249.35 1203.59 253.85C1209.89 258.29 1214.66 264.38 1217.9 272.12C1221.14 279.86 1222.76 288.62 1222.76 298.4C1222.76 308.06 1221.14 316.79 1217.9 324.59C1214.66 332.33 1209.83 338.45 1203.41 342.95C1196.99 347.45 1189.04 349.7 1179.56 349.7ZM1182.89 330.26C1188.71 330.26 1193.39 328.94 1196.93 326.3C1200.53 323.6 1203.14 319.85 1204.76 315.05C1206.44 310.25 1207.28 304.7 1207.28 298.4C1207.28 292.04 1206.44 286.49 1204.76 281.75C1203.14 276.95 1200.59 273.23 1197.11 270.59C1193.63 267.89 1189.13 266.54 1183.61 266.54C1177.79 266.54 1172.99 267.98 1169.21 270.86C1165.43 273.68 1162.64 277.52 1160.84 282.38C1159.04 287.18 1158.14 292.52 1158.14 298.4C1158.14 304.34 1159.01 309.74 1160.75 314.6C1162.55 319.4 1165.28 323.21 1168.94 326.03C1172.6 328.85 1177.25 330.26 1182.89 330.26ZM1207.28 347V278.78H1204.58V217.4H1226.45V347H1207.28ZM1295.88 349.7C1286.04 349.7 1277.4 347.57 1269.96 343.31C1262.52 339.05 1256.7 333.14 1252.5 325.58C1248.36 318.02 1246.29 309.32 1246.29 299.48C1246.29 288.86 1248.33 279.65 1252.41 271.85C1256.49 263.99 1262.16 257.9 1269.42 253.58C1276.68 249.26 1285.08 247.1 1294.62 247.1C1304.7 247.1 1313.25 249.47 1320.27 254.21C1327.35 258.89 1332.6 265.52 1336.02 274.1C1339.44 282.68 1340.73 292.79 1339.89 304.43H1318.38V296.51C1318.32 285.95 1316.46 278.24 1312.8 273.38C1309.14 268.52 1303.38 266.09 1295.52 266.09C1286.64 266.09 1280.04 268.85 1275.72 274.37C1271.4 279.83 1269.24 287.84 1269.24 298.4C1269.24 308.24 1271.4 315.86 1275.72 321.26C1280.04 326.66 1286.34 329.36 1294.62 329.36C1299.96 329.36 1304.55 328.19 1308.39 325.85C1312.29 323.45 1315.29 320 1317.39 315.5L1338.81 321.98C1335.09 330.74 1329.33 337.55 1321.53 342.41C1313.79 347.27 1305.24 349.7 1295.88 349.7ZM1262.4 304.43V288.05H1329.27V304.43H1262.4ZM1406.68 349.7C1397.2 349.7 1389.25 347.45 1382.83 342.95C1376.41 338.45 1371.58 332.33 1368.34 324.59C1365.1 316.79 1363.48 308.06 1363.48 298.4C1363.48 288.62 1365.1 279.86 1368.34 272.12C1371.58 264.38 1376.32 258.29 1382.56 253.85C1388.86 249.35 1396.63 247.1 1405.87 247.1C1415.05 247.1 1423 249.35 1429.72 253.85C1436.5 258.29 1441.75 264.38 1445.47 272.12C1449.19 279.8 1451.05 288.56 1451.05 298.4C1451.05 308.12 1449.22 316.85 1445.56 324.59C1441.9 332.33 1436.74 338.45 1430.08 342.95C1423.42 347.45 1415.62 349.7 1406.68 349.7ZM1359.79 347V217.4H1381.66V278.78H1378.96V347H1359.79ZM1403.35 330.26C1408.99 330.26 1413.64 328.85 1417.3 326.03C1420.96 323.21 1423.66 319.4 1425.4 314.6C1427.2 309.74 1428.1 304.34 1428.1 298.4C1428.1 292.52 1427.2 287.18 1425.4 282.38C1423.6 277.52 1420.81 273.68 1417.03 270.86C1413.25 267.98 1408.45 266.54 1402.63 266.54C1397.11 266.54 1392.61 267.89 1389.13 270.59C1385.65 273.23 1383.07 276.95 1381.39 281.75C1379.77 286.49 1378.96 292.04 1378.96 298.4C1378.96 304.7 1379.77 310.25 1381.39 315.05C1383.07 319.85 1385.68 323.6 1389.22 326.3C1392.82 328.94 1397.53 330.26 1403.35 330.26ZM1472.69 347V214.7H1494.38V347H1472.69ZM1564.26 349.7C1554.54 349.7 1546.05 347.51 1538.79 343.13C1531.53 338.75 1525.89 332.72 1521.87 325.04C1517.91 317.3 1515.93 308.42 1515.93 298.4C1515.93 288.2 1517.97 279.26 1522.05 271.58C1526.13 263.9 1531.8 257.9 1539.06 253.58C1546.32 249.26 1554.72 247.1 1564.26 247.1C1574.04 247.1 1582.56 249.29 1589.82 253.67C1597.08 258.05 1602.72 264.11 1606.74 271.85C1610.76 279.53 1612.77 288.38 1612.77 298.4C1612.77 308.48 1610.73 317.39 1606.65 325.13C1602.63 332.81 1596.99 338.84 1589.73 343.22C1582.47 347.54 1573.98 349.7 1564.26 349.7ZM1564.26 329.36C1572.9 329.36 1579.32 326.48 1583.52 320.72C1587.72 314.96 1589.82 307.52 1589.82 298.4C1589.82 288.98 1587.69 281.48 1583.43 275.9C1579.17 270.26 1572.78 267.44 1564.26 267.44C1558.44 267.44 1553.64 268.76 1549.86 271.4C1546.14 273.98 1543.38 277.61 1541.58 282.29C1539.78 286.91 1538.88 292.28 1538.88 298.4C1538.88 307.82 1541.01 315.35 1545.27 320.99C1549.59 326.57 1555.92 329.36 1564.26 329.36ZM1675.53 349.7C1665.81 349.7 1657.32 347.51 1650.06 343.13C1642.8 338.75 1637.16 332.72 1633.14 325.04C1629.18 317.3 1627.2 308.42 1627.2 298.4C1627.2 288.2 1629.24 279.26 1633.32 271.58C1637.4 263.9 1643.07 257.9 1650.33 253.58C1657.59 249.26 1665.99 247.1 1675.53 247.1C1685.31 247.1 1693.83 249.29 1701.09 253.67C1708.35 258.05 1713.99 264.11 1718.01 271.85C1722.03 279.53 1724.04 288.38 1724.04 298.4C1724.04 308.48 1722 317.39 1717.92 325.13C1713.9 332.81 1708.26 338.84 1701 343.22C1693.74 347.54 1685.25 349.7 1675.53 349.7ZM1675.53 329.36C1684.17 329.36 1690.59 326.48 1694.79 320.72C1698.99 314.96 1701.09 307.52 1701.09 298.4C1701.09 288.98 1698.96 281.48 1694.7 275.9C1690.44 270.26 1684.05 267.44 1675.53 267.44C1669.71 267.44 1664.91 268.76 1661.13 271.4C1657.41 273.98 1654.65 277.61 1652.85 282.29C1651.05 286.91 1650.15 292.28 1650.15 298.4C1650.15 307.82 1652.28 315.35 1656.54 320.99C1660.86 326.57 1667.19 329.36 1675.53 329.36ZM1860.6 347V287.96C1860.6 281.3 1858.95 276.11 1855.65 272.39C1852.35 268.61 1847.88 266.72 1842.24 266.72C1838.76 266.72 1835.64 267.53 1832.88 269.15C1830.12 270.71 1827.93 273.05 1826.31 276.17C1824.69 279.23 1823.88 282.89 1823.88 287.15L1814.25 281.48C1814.19 274.76 1815.69 268.85 1818.75 263.75C1821.87 258.59 1826.07 254.57 1831.35 251.69C1836.63 248.81 1842.51 247.37 1848.99 247.37C1859.73 247.37 1867.95 250.61 1873.65 257.09C1879.41 263.51 1882.29 271.97 1882.29 282.47V347H1860.6ZM1743.69 347V249.8H1762.86V279.95H1765.56V347H1743.69ZM1802.28 347V288.23C1802.28 281.45 1800.63 276.17 1797.33 272.39C1794.03 268.61 1789.53 266.72 1783.83 266.72C1778.31 266.72 1773.87 268.61 1770.51 272.39C1767.21 276.17 1765.56 281.09 1765.56 287.15L1755.84 280.67C1755.84 274.37 1757.4 268.7 1760.52 263.66C1763.64 258.62 1767.84 254.66 1773.12 251.78C1778.46 248.84 1784.43 247.37 1791.03 247.37C1798.29 247.37 1804.35 248.93 1809.21 252.05C1814.13 255.11 1817.79 259.31 1820.19 264.65C1822.65 269.93 1823.88 275.9 1823.88 282.56V347H1802.28ZM1110.69 595.7C1101.21 595.7 1092.66 594.05 1085.04 590.75C1077.48 587.45 1071.24 582.74 1066.32 576.62C1061.46 570.44 1058.37 563.12 1057.05 554.66L1079.55 551.24C1081.47 558.92 1085.4 564.86 1091.34 569.06C1097.34 573.26 1104.24 575.36 1112.04 575.36C1116.66 575.36 1121.01 574.64 1125.09 573.2C1129.17 571.76 1132.47 569.66 1134.99 566.9C1137.57 564.14 1138.86 560.75 1138.86 556.73C1138.86 554.93 1138.56 553.28 1137.96 551.78C1137.36 550.22 1136.46 548.84 1135.26 547.64C1134.12 546.44 1132.62 545.36 1130.76 544.4C1128.96 543.38 1126.86 542.51 1124.46 541.79L1090.98 531.89C1088.1 531.05 1084.98 529.94 1081.62 528.56C1078.32 527.12 1075.17 525.17 1072.17 522.71C1069.23 520.19 1066.8 517.01 1064.88 513.17C1063.02 509.27 1062.09 504.47 1062.09 498.77C1062.09 490.43 1064.19 483.44 1068.39 477.8C1072.65 472.1 1078.35 467.84 1085.49 465.02C1092.69 462.2 1100.67 460.82 1109.43 460.88C1118.31 460.94 1126.23 462.47 1133.19 465.47C1140.15 468.41 1145.97 472.7 1150.65 478.34C1155.33 483.98 1158.63 490.79 1160.55 498.77L1137.24 502.82C1136.28 498.26 1134.42 494.39 1131.66 491.21C1128.96 487.97 1125.63 485.51 1121.67 483.83C1117.77 482.15 1113.6 481.25 1109.16 481.13C1104.84 481.07 1100.82 481.73 1097.1 483.11C1093.44 484.43 1090.47 486.35 1088.19 488.87C1085.97 491.39 1084.86 494.33 1084.86 497.69C1084.86 500.87 1085.82 503.48 1087.74 505.52C1089.66 507.5 1092.03 509.09 1094.85 510.29C1097.73 511.43 1100.64 512.39 1103.58 513.17L1126.8 519.65C1129.98 520.49 1133.55 521.63 1137.51 523.07C1141.47 524.51 1145.28 526.52 1148.94 529.1C1152.6 531.68 1155.6 535.07 1157.94 539.27C1160.34 543.47 1161.54 548.81 1161.54 555.29C1161.54 562.01 1160.13 567.92 1157.31 573.02C1154.55 578.06 1150.8 582.26 1146.06 585.62C1141.32 588.98 1135.89 591.5 1129.77 593.18C1123.71 594.86 1117.35 595.7 1110.69 595.7ZM1237.99 593C1231.57 594.2 1225.27 594.71 1219.09 594.53C1212.97 594.41 1207.48 593.3 1202.62 591.2C1197.76 589.04 1194.07 585.65 1191.55 581.03C1189.33 576.83 1188.16 572.54 1188.04 568.16C1187.92 563.78 1187.86 558.83 1187.86 553.31V468.8H1209.46V552.05C1209.46 555.95 1209.49 559.37 1209.55 562.31C1209.67 565.25 1210.3 567.65 1211.44 569.51C1213.6 573.11 1217.05 575.12 1221.79 575.54C1226.53 575.96 1231.93 575.72 1237.99 574.82V593ZM1170.22 512.81V495.8H1237.99V512.81H1170.22ZM1295.34 595.79C1288.14 595.79 1282.2 594.59 1277.52 592.19C1272.84 589.79 1269.12 586.73 1266.36 583.01C1263.6 579.29 1261.56 575.33 1260.24 571.13C1258.92 566.93 1258.05 562.97 1257.63 559.25C1257.27 555.47 1257.09 552.41 1257.09 550.07V495.8H1279.05V542.6C1279.05 545.6 1279.26 548.99 1279.68 552.77C1280.1 556.49 1281.06 560.09 1282.56 563.57C1284.12 566.99 1286.4 569.81 1289.4 572.03C1292.46 574.25 1296.57 575.36 1301.73 575.36C1304.49 575.36 1307.22 574.91 1309.92 574.01C1312.62 573.11 1315.05 571.58 1317.21 569.42C1319.43 567.2 1321.2 564.17 1322.52 560.33C1323.84 556.49 1324.5 551.63 1324.5 545.75L1337.37 551.24C1337.37 559.52 1335.75 567.02 1332.51 573.74C1329.33 580.46 1324.62 585.83 1318.38 589.85C1312.14 593.81 1304.46 595.79 1295.34 595.79ZM1327.11 593V562.85H1324.5V495.8H1346.28V593H1327.11ZM1410.54 595.7C1401.6 595.7 1393.8 593.45 1387.14 588.95C1380.48 584.45 1375.32 578.33 1371.66 570.59C1368 562.85 1366.17 554.12 1366.17 544.4C1366.17 534.56 1368 525.8 1371.66 518.12C1375.38 510.38 1380.63 504.29 1387.41 499.85C1394.19 495.35 1402.17 493.1 1411.35 493.1C1420.59 493.1 1428.33 495.35 1434.57 499.85C1440.87 504.29 1445.64 510.38 1448.88 518.12C1452.12 525.86 1453.74 534.62 1453.74 544.4C1453.74 554.06 1452.12 562.79 1448.88 570.59C1445.64 578.33 1440.81 584.45 1434.39 588.95C1427.97 593.45 1420.02 595.7 1410.54 595.7ZM1413.87 576.26C1419.69 576.26 1424.37 574.94 1427.91 572.3C1431.51 569.6 1434.12 565.85 1435.74 561.05C1437.42 556.25 1438.26 550.7 1438.26 544.4C1438.26 538.04 1437.42 532.49 1435.74 527.75C1434.12 522.95 1431.57 519.23 1428.09 516.59C1424.61 513.89 1420.11 512.54 1414.59 512.54C1408.77 512.54 1403.97 513.98 1400.19 516.86C1396.41 519.68 1393.62 523.52 1391.82 528.38C1390.02 533.18 1389.12 538.52 1389.12 544.4C1389.12 550.34 1389.99 555.74 1391.73 560.6C1393.53 565.4 1396.26 569.21 1399.92 572.03C1403.58 574.85 1408.23 576.26 1413.87 576.26ZM1438.26 593V524.78H1435.56V463.4H1457.43V593H1438.26ZM1484.46 481.04V461.15H1506.15V481.04H1484.46ZM1484.46 593V495.8H1506.15V593H1484.46ZM1576.04 595.7C1566.32 595.7 1557.83 593.51 1550.57 589.13C1543.31 584.75 1537.67 578.72 1533.65 571.04C1529.69 563.3 1527.71 554.42 1527.71 544.4C1527.71 534.2 1529.75 525.26 1533.83 517.58C1537.91 509.9 1543.58 503.9 1550.84 499.58C1558.1 495.26 1566.5 493.1 1576.04 493.1C1585.82 493.1 1594.34 495.29 1601.6 499.67C1608.86 504.05 1614.5 510.11 1618.52 517.85C1622.54 525.53 1624.55 534.38 1624.55 544.4C1624.55 554.48 1622.51 563.39 1618.43 571.13C1614.41 578.81 1608.77 584.84 1601.51 589.22C1594.25 593.54 1585.76 595.7 1576.04 595.7ZM1576.04 575.36C1584.68 575.36 1591.1 572.48 1595.3 566.72C1599.5 560.96 1601.6 553.52 1601.6 544.4C1601.6 534.98 1599.47 527.48 1595.21 521.9C1590.95 516.26 1584.56 513.44 1576.04 513.44C1570.22 513.44 1565.42 514.76 1561.64 517.4C1557.92 519.98 1555.16 523.61 1553.36 528.29C1551.56 532.91 1550.66 538.28 1550.66 544.4C1550.66 553.82 1552.79 561.35 1557.05 566.99C1561.37 572.57 1567.7 575.36 1576.04 575.36ZM1679.63 595.7C1667.63 595.7 1657.88 593 1650.38 587.6C1642.88 582.2 1638.32 574.61 1636.7 564.83L1658.84 561.41C1659.98 566.21 1662.5 569.99 1666.4 572.75C1670.3 575.51 1675.22 576.89 1681.16 576.89C1686.38 576.89 1690.4 575.87 1693.22 573.83C1696.1 571.73 1697.54 568.88 1697.54 565.28C1697.54 563.06 1697 561.29 1695.92 559.97C1694.9 558.59 1692.62 557.27 1689.08 556.01C1685.54 554.75 1680.11 553.16 1672.79 551.24C1664.63 549.08 1658.15 546.77 1653.35 544.31C1648.55 541.79 1645.1 538.82 1643 535.4C1640.9 531.98 1639.85 527.84 1639.85 522.98C1639.85 516.92 1641.44 511.64 1644.62 507.14C1647.8 502.64 1652.24 499.19 1657.94 496.79C1663.64 494.33 1670.36 493.1 1678.1 493.1C1685.66 493.1 1692.35 494.27 1698.17 496.61C1704.05 498.95 1708.79 502.28 1712.39 506.6C1715.99 510.92 1718.21 515.99 1719.05 521.81L1696.91 525.77C1696.37 521.63 1694.48 518.36 1691.24 515.96C1688.06 513.56 1683.8 512.21 1678.46 511.91C1673.36 511.61 1669.25 512.39 1666.13 514.25C1663.01 516.05 1661.45 518.6 1661.45 521.9C1661.45 523.76 1662.08 525.35 1663.34 526.67C1664.6 527.99 1667.12 529.31 1670.9 530.63C1674.74 531.95 1680.44 533.57 1688 535.49C1695.74 537.47 1701.92 539.75 1706.54 542.33C1711.22 544.85 1714.58 547.88 1716.62 551.42C1718.72 554.96 1719.77 559.25 1719.77 564.29C1719.77 574.07 1716.2 581.75 1709.06 587.33C1701.98 592.91 1692.17 595.7 1679.63 595.7Z" fill="#F26321"/>
<path d="M346.708 481.5L284.308 419.1L346.708 356.7L366.208 376.07L321.748 419.1L366.208 462.13L346.708 481.5ZM697.111 481.5L677.741 462.13L722.071 419.1L677.741 376.07L697.111 356.7L759.641 419.1L697.111 481.5Z" fill="#F26321"/>
<path d="M531.28 313.8H562.74L512.82 501H481.36L531.28 313.8Z" fill="white"/>
</svg>
