<svg width="1500" height="700" viewBox="0 0 1500 700" fill="none" xmlns="http://www.w3.org/2000/svg">
<path d="M313.242 298.7C300.282 298.7 289.182 295.88 279.942 290.24C270.702 284.54 263.592 276.62 258.612 266.48C253.692 256.34 251.232 244.58 251.232 231.2C251.232 217.82 253.692 206.06 258.612 195.92C263.592 185.78 270.702 177.89 279.942 172.25C289.182 166.55 300.282 163.7 313.242 163.7C328.182 163.7 340.632 167.45 350.592 174.95C360.552 182.39 367.542 192.44 371.562 205.1L349.692 211.13C347.172 202.67 342.882 196.07 336.822 191.33C330.762 186.53 322.902 184.13 313.242 184.13C304.542 184.13 297.282 186.08 291.462 189.98C285.702 193.88 281.352 199.37 278.412 206.45C275.532 213.47 274.062 221.72 274.002 231.2C274.002 240.68 275.442 248.96 278.322 256.04C281.262 263.06 285.642 268.52 291.462 272.42C297.282 276.32 304.542 278.27 313.242 278.27C322.902 278.27 330.762 275.87 336.822 271.07C342.882 266.27 347.172 259.67 349.692 251.27L371.562 257.3C367.542 269.96 360.552 280.04 350.592 287.54C340.632 294.98 328.182 298.7 313.242 298.7ZM434.253 298.7C424.533 298.7 416.043 296.51 408.783 292.13C401.523 287.75 395.883 281.72 391.863 274.04C387.903 266.3 385.923 257.42 385.923 247.4C385.923 237.2 387.963 228.26 392.043 220.58C396.123 212.9 401.793 206.9 409.053 202.58C416.313 198.26 424.713 196.1 434.253 196.1C444.033 196.1 452.553 198.29 459.813 202.67C467.073 207.05 472.713 213.11 476.733 220.85C480.753 228.53 482.763 237.38 482.763 247.4C482.763 257.48 480.723 266.39 476.643 274.13C472.623 281.81 466.983 287.84 459.723 292.22C452.463 296.54 443.973 298.7 434.253 298.7ZM434.253 278.36C442.893 278.36 449.313 275.48 453.513 269.72C457.713 263.96 459.813 256.52 459.813 247.4C459.813 237.98 457.683 230.48 453.423 224.9C449.163 219.26 442.773 216.44 434.253 216.44C428.433 216.44 423.633 217.76 419.853 220.4C416.133 222.98 413.373 226.61 411.573 231.29C409.773 235.91 408.873 241.28 408.873 247.4C408.873 256.82 411.003 264.35 415.263 269.99C419.583 275.57 425.913 278.36 434.253 278.36ZM541.562 298.7C532.622 298.7 524.822 296.45 518.162 291.95C511.502 287.45 506.342 281.33 502.682 273.59C499.022 265.85 497.192 257.12 497.192 247.4C497.192 237.56 499.022 228.8 502.682 221.12C506.402 213.38 511.652 207.29 518.432 202.85C525.212 198.35 533.192 196.1 542.372 196.1C551.612 196.1 559.352 198.35 565.592 202.85C571.892 207.29 576.662 213.38 579.902 221.12C583.142 228.86 584.762 237.62 584.762 247.4C584.762 257.06 583.142 265.79 579.902 273.59C576.662 281.33 571.832 287.45 565.412 291.95C558.992 296.45 551.042 298.7 541.562 298.7ZM544.892 279.26C550.712 279.26 555.392 277.94 558.932 275.3C562.532 272.6 565.142 268.85 566.762 264.05C568.442 259.25 569.282 253.7 569.282 247.4C569.282 241.04 568.442 235.49 566.762 230.75C565.142 225.95 562.592 222.23 559.112 219.59C555.632 216.89 551.132 215.54 545.612 215.54C539.792 215.54 534.992 216.98 531.212 219.86C527.432 222.68 524.642 226.52 522.842 231.38C521.042 236.18 520.142 241.52 520.142 247.4C520.142 253.34 521.012 258.74 522.752 263.6C524.552 268.4 527.282 272.21 530.942 275.03C534.602 277.85 539.252 279.26 544.892 279.26ZM569.282 296V227.78H566.582V166.4H588.452V296H569.282ZM657.876 298.7C648.036 298.7 639.396 296.57 631.956 292.31C624.516 288.05 618.696 282.14 614.496 274.58C610.356 267.02 608.286 258.32 608.286 248.48C608.286 237.86 610.326 228.65 614.406 220.85C618.486 212.99 624.156 206.9 631.416 202.58C638.676 198.26 647.076 196.1 656.616 196.1C666.696 196.1 675.246 198.47 682.266 203.21C689.346 207.89 694.596 214.52 698.016 223.1C701.436 231.68 702.726 241.79 701.886 253.43H680.376V245.51C680.316 234.95 678.456 227.24 674.796 222.38C671.136 217.52 665.376 215.09 657.516 215.09C648.636 215.09 642.036 217.85 637.716 223.37C633.396 228.83 631.236 236.84 631.236 247.4C631.236 257.24 633.396 264.86 637.716 270.26C642.036 275.66 648.336 278.36 656.616 278.36C661.956 278.36 666.546 277.19 670.386 274.85C674.286 272.45 677.286 269 679.386 264.5L700.806 270.98C697.086 279.74 691.326 286.55 683.526 291.41C675.786 296.27 667.236 298.7 657.876 298.7ZM624.396 253.43V237.05H691.266V253.43H624.396ZM768.677 298.7C759.197 298.7 751.247 296.45 744.827 291.95C738.407 287.45 733.577 281.33 730.337 273.59C727.097 265.79 725.477 257.06 725.477 247.4C725.477 237.62 727.097 228.86 730.337 221.12C733.577 213.38 738.317 207.29 744.557 202.85C750.857 198.35 758.627 196.1 767.867 196.1C777.047 196.1 784.997 198.35 791.717 202.85C798.497 207.29 803.747 213.38 807.467 221.12C811.187 228.8 813.047 237.56 813.047 247.4C813.047 257.12 811.217 265.85 807.557 273.59C803.897 281.33 798.737 287.45 792.077 291.95C785.417 296.45 777.617 298.7 768.677 298.7ZM721.787 296V166.4H743.657V227.78H740.957V296H721.787ZM765.347 279.26C770.987 279.26 775.637 277.85 779.297 275.03C782.957 272.21 785.657 268.4 787.397 263.6C789.197 258.74 790.097 253.34 790.097 247.4C790.097 241.52 789.197 236.18 787.397 231.38C785.597 226.52 782.807 222.68 779.027 219.86C775.247 216.98 770.447 215.54 764.627 215.54C759.107 215.54 754.607 216.89 751.127 219.59C747.647 222.23 745.067 225.95 743.387 230.75C741.767 235.49 740.957 241.04 740.957 247.4C740.957 253.7 741.767 259.25 743.387 264.05C745.067 268.85 747.677 272.6 751.217 275.3C754.817 277.94 759.527 279.26 765.347 279.26ZM834.685 296V163.7H856.375V296H834.685ZM926.264 298.7C916.544 298.7 908.054 296.51 900.794 292.13C893.534 287.75 887.894 281.72 883.874 274.04C879.914 266.3 877.934 257.42 877.934 247.4C877.934 237.2 879.974 228.26 884.054 220.58C888.134 212.9 893.804 206.9 901.064 202.58C908.324 198.26 916.724 196.1 926.264 196.1C936.044 196.1 944.564 198.29 951.824 202.67C959.084 207.05 964.724 213.11 968.744 220.85C972.764 228.53 974.774 237.38 974.774 247.4C974.774 257.48 972.734 266.39 968.654 274.13C964.634 281.81 958.994 287.84 951.734 292.22C944.474 296.54 935.984 298.7 926.264 298.7ZM926.264 278.36C934.904 278.36 941.324 275.48 945.524 269.72C949.724 263.96 951.824 256.52 951.824 247.4C951.824 237.98 949.694 230.48 945.434 224.9C941.174 219.26 934.784 216.44 926.264 216.44C920.444 216.44 915.644 217.76 911.864 220.4C908.144 222.98 905.384 226.61 903.584 231.29C901.784 235.91 900.884 241.28 900.884 247.4C900.884 256.82 903.014 264.35 907.274 269.99C911.594 275.57 917.924 278.36 926.264 278.36ZM1037.53 298.7C1027.81 298.7 1019.32 296.51 1012.06 292.13C1004.8 287.75 999.164 281.72 995.144 274.04C991.184 266.3 989.204 257.42 989.204 247.4C989.204 237.2 991.244 228.26 995.324 220.58C999.404 212.9 1005.07 206.9 1012.33 202.58C1019.59 198.26 1027.99 196.1 1037.53 196.1C1047.31 196.1 1055.83 198.29 1063.09 202.67C1070.35 207.05 1075.99 213.11 1080.01 220.85C1084.03 228.53 1086.04 237.38 1086.04 247.4C1086.04 257.48 1084 266.39 1079.92 274.13C1075.9 281.81 1070.26 287.84 1063 292.22C1055.74 296.54 1047.25 298.7 1037.53 298.7ZM1037.53 278.36C1046.17 278.36 1052.59 275.48 1056.79 269.72C1060.99 263.96 1063.09 256.52 1063.09 247.4C1063.09 237.98 1060.96 230.48 1056.7 224.9C1052.44 219.26 1046.05 216.44 1037.53 216.44C1031.71 216.44 1026.91 217.76 1023.13 220.4C1019.41 222.98 1016.65 226.61 1014.85 231.29C1013.05 235.91 1012.15 241.28 1012.15 247.4C1012.15 256.82 1014.28 264.35 1018.54 269.99C1022.86 275.57 1029.19 278.36 1037.53 278.36ZM1222.6 296V236.96C1222.6 230.3 1220.95 225.11 1217.65 221.39C1214.35 217.61 1209.88 215.72 1204.24 215.72C1200.76 215.72 1197.64 216.53 1194.88 218.15C1192.12 219.71 1189.93 222.05 1188.31 225.17C1186.69 228.23 1185.88 231.89 1185.88 236.15L1176.25 230.48C1176.19 223.76 1177.69 217.85 1180.75 212.75C1183.87 207.59 1188.07 203.57 1193.35 200.69C1198.63 197.81 1204.51 196.37 1210.99 196.37C1221.73 196.37 1229.95 199.61 1235.65 206.09C1241.41 212.51 1244.29 220.97 1244.29 231.47V296H1222.6ZM1105.69 296V198.8H1124.86V228.95H1127.56V296H1105.69ZM1164.28 296V237.23C1164.28 230.45 1162.63 225.17 1159.33 221.39C1156.03 217.61 1151.53 215.72 1145.83 215.72C1140.31 215.72 1135.87 217.61 1132.51 221.39C1129.21 225.17 1127.56 230.09 1127.56 236.15L1117.84 229.67C1117.84 223.37 1119.4 217.7 1122.52 212.66C1125.64 207.62 1129.84 203.66 1135.12 200.78C1140.46 197.84 1146.43 196.37 1153.03 196.37C1160.29 196.37 1166.35 197.93 1171.21 201.05C1176.13 204.11 1179.79 208.31 1182.19 213.65C1184.65 218.93 1185.88 224.9 1185.88 231.56V296H1164.28ZM472.691 544.7C463.211 544.7 454.661 543.05 447.041 539.75C439.481 536.45 433.241 531.74 428.321 525.62C423.461 519.44 420.371 512.12 419.051 503.66L441.551 500.24C443.471 507.92 447.401 513.86 453.341 518.06C459.341 522.26 466.241 524.36 474.041 524.36C478.661 524.36 483.011 523.64 487.091 522.2C491.171 520.76 494.471 518.66 496.991 515.9C499.571 513.14 500.861 509.75 500.861 505.73C500.861 503.93 500.561 502.28 499.961 500.78C499.361 499.22 498.461 497.84 497.261 496.64C496.121 495.44 494.621 494.36 492.761 493.4C490.961 492.38 488.861 491.51 486.461 490.79L452.981 480.89C450.101 480.05 446.981 478.94 443.621 477.56C440.321 476.12 437.171 474.17 434.171 471.71C431.231 469.19 428.801 466.01 426.881 462.17C425.021 458.27 424.091 453.47 424.091 447.77C424.091 439.43 426.191 432.44 430.391 426.8C434.651 421.1 440.351 416.84 447.491 414.02C454.691 411.2 462.671 409.82 471.431 409.88C480.311 409.94 488.231 411.47 495.191 414.47C502.151 417.41 507.971 421.7 512.651 427.34C517.331 432.98 520.631 439.79 522.551 447.77L499.241 451.82C498.281 447.26 496.421 443.39 493.661 440.21C490.961 436.97 487.631 434.51 483.671 432.83C479.771 431.15 475.601 430.25 471.161 430.13C466.841 430.07 462.821 430.73 459.101 432.11C455.441 433.43 452.471 435.35 450.191 437.87C447.971 440.39 446.861 443.33 446.861 446.69C446.861 449.87 447.821 452.48 449.741 454.52C451.661 456.5 454.031 458.09 456.851 459.29C459.731 460.43 462.641 461.39 465.581 462.17L488.801 468.65C491.981 469.49 495.551 470.63 499.511 472.07C503.471 473.51 507.281 475.52 510.941 478.1C514.601 480.68 517.601 484.07 519.941 488.27C522.341 492.47 523.541 497.81 523.541 504.29C523.541 511.01 522.131 516.92 519.311 522.02C516.551 527.06 512.801 531.26 508.061 534.62C503.321 537.98 497.891 540.5 491.771 542.18C485.711 543.86 479.351 544.7 472.691 544.7ZM599.992 542C593.572 543.2 587.272 543.71 581.092 543.53C574.972 543.41 569.482 542.3 564.622 540.2C559.762 538.04 556.072 534.65 553.552 530.03C551.332 525.83 550.162 521.54 550.042 517.16C549.922 512.78 549.862 507.83 549.862 502.31V417.8H571.462V501.05C571.462 504.95 571.492 508.37 571.552 511.31C571.672 514.25 572.302 516.65 573.442 518.51C575.602 522.11 579.052 524.12 583.792 524.54C588.532 524.96 593.932 524.72 599.992 523.82V542ZM532.222 461.81V444.8H599.992V461.81H532.222ZM657.343 544.79C650.143 544.79 644.203 543.59 639.523 541.19C634.843 538.79 631.123 535.73 628.363 532.01C625.603 528.29 623.563 524.33 622.243 520.13C620.923 515.93 620.053 511.97 619.633 508.25C619.273 504.47 619.093 501.41 619.093 499.07V444.8H641.053V491.6C641.053 494.6 641.263 497.99 641.683 501.77C642.103 505.49 643.063 509.09 644.563 512.57C646.123 515.99 648.403 518.81 651.403 521.03C654.463 523.25 658.573 524.36 663.733 524.36C666.493 524.36 669.223 523.91 671.923 523.01C674.623 522.11 677.053 520.58 679.213 518.42C681.433 516.2 683.203 513.17 684.523 509.33C685.843 505.49 686.503 500.63 686.503 494.75L699.373 500.24C699.373 508.52 697.753 516.02 694.513 522.74C691.333 529.46 686.623 534.83 680.383 538.85C674.143 542.81 666.463 544.79 657.343 544.79ZM689.113 542V511.85H686.503V444.8H708.283V542H689.113ZM772.539 544.7C763.599 544.7 755.799 542.45 749.139 537.95C742.479 533.45 737.319 527.33 733.659 519.59C729.999 511.85 728.169 503.12 728.169 493.4C728.169 483.56 729.999 474.8 733.659 467.12C737.379 459.38 742.629 453.29 749.409 448.85C756.189 444.35 764.169 442.1 773.349 442.1C782.589 442.1 790.329 444.35 796.569 448.85C802.869 453.29 807.639 459.38 810.879 467.12C814.119 474.86 815.739 483.62 815.739 493.4C815.739 503.06 814.119 511.79 810.879 519.59C807.639 527.33 802.809 533.45 796.389 537.95C789.969 542.45 782.019 544.7 772.539 544.7ZM775.869 525.26C781.689 525.26 786.369 523.94 789.909 521.3C793.509 518.6 796.119 514.85 797.739 510.05C799.419 505.25 800.259 499.7 800.259 493.4C800.259 487.04 799.419 481.49 797.739 476.75C796.119 471.95 793.569 468.23 790.089 465.59C786.609 462.89 782.109 461.54 776.589 461.54C770.769 461.54 765.969 462.98 762.189 465.86C758.409 468.68 755.619 472.52 753.819 477.38C752.019 482.18 751.119 487.52 751.119 493.4C751.119 499.34 751.989 504.74 753.729 509.6C755.529 514.4 758.259 518.21 761.919 521.03C765.579 523.85 770.229 525.26 775.869 525.26ZM800.259 542V473.78H797.559V412.4H819.429V542H800.259ZM846.463 430.04V410.15H868.153V430.04H846.463ZM846.463 542V444.8H868.153V542H846.463ZM938.042 544.7C928.322 544.7 919.832 542.51 912.572 538.13C905.312 533.75 899.672 527.72 895.652 520.04C891.692 512.3 889.712 503.42 889.712 493.4C889.712 483.2 891.752 474.26 895.832 466.58C899.912 458.9 905.582 452.9 912.842 448.58C920.102 444.26 928.502 442.1 938.042 442.1C947.822 442.1 956.342 444.29 963.602 448.67C970.862 453.05 976.502 459.11 980.522 466.85C984.542 474.53 986.552 483.38 986.552 493.4C986.552 503.48 984.512 512.39 980.432 520.13C976.412 527.81 970.772 533.84 963.512 538.22C956.252 542.54 947.762 544.7 938.042 544.7ZM938.042 524.36C946.682 524.36 953.102 521.48 957.302 515.72C961.502 509.96 963.602 502.52 963.602 493.4C963.602 483.98 961.472 476.48 957.212 470.9C952.952 465.26 946.562 462.44 938.042 462.44C932.222 462.44 927.422 463.76 923.642 466.4C919.922 468.98 917.162 472.61 915.362 477.29C913.562 481.91 912.662 487.28 912.662 493.4C912.662 502.82 914.792 510.35 919.052 515.99C923.372 521.57 929.702 524.36 938.042 524.36ZM1041.63 544.7C1029.63 544.7 1019.88 542 1012.38 536.6C1004.88 531.2 1000.32 523.61 998.696 513.83L1020.84 510.41C1021.98 515.21 1024.5 518.99 1028.4 521.75C1032.3 524.51 1037.22 525.89 1043.16 525.89C1048.38 525.89 1052.4 524.87 1055.22 522.83C1058.1 520.73 1059.54 517.88 1059.54 514.28C1059.54 512.06 1059 510.29 1057.92 508.97C1056.9 507.59 1054.62 506.27 1051.08 505.01C1047.54 503.75 1042.11 502.16 1034.79 500.24C1026.63 498.08 1020.15 495.77 1015.35 493.31C1010.55 490.79 1007.1 487.82 1005 484.4C1002.9 480.98 1001.85 476.84 1001.85 471.98C1001.85 465.92 1003.44 460.64 1006.62 456.14C1009.8 451.64 1014.24 448.19 1019.94 445.79C1025.64 443.33 1032.36 442.1 1040.1 442.1C1047.66 442.1 1054.35 443.27 1060.17 445.61C1066.05 447.95 1070.79 451.28 1074.39 455.6C1077.99 459.92 1080.21 464.99 1081.05 470.81L1058.91 474.77C1058.37 470.63 1056.48 467.36 1053.24 464.96C1050.06 462.56 1045.8 461.21 1040.46 460.91C1035.36 460.61 1031.25 461.39 1028.13 463.25C1025.01 465.05 1023.45 467.6 1023.45 470.9C1023.45 472.76 1024.08 474.35 1025.34 475.67C1026.6 476.99 1029.12 478.31 1032.9 479.63C1036.74 480.95 1042.44 482.57 1050 484.49C1057.74 486.47 1063.92 488.75 1068.54 491.33C1073.22 493.85 1076.58 496.88 1078.62 500.42C1080.72 503.96 1081.77 508.25 1081.77 513.29C1081.77 523.07 1078.2 530.75 1071.06 536.33C1063.98 541.91 1054.17 544.7 1041.63 544.7Z" fill="#F26321"/>
</svg>
