<svg width="2500" height="750" viewBox="0 0 2500 750" fill="none" xmlns="http://www.w3.org/2000/svg">
<path d="M249.562 429.5L206.362 386.3L249.562 343.1L263.062 356.51L232.282 386.3L263.062 416.09L249.562 429.5ZM492.149 429.5L478.739 416.09L509.429 386.3L478.739 356.51L492.149 343.1L535.439 386.3L492.149 429.5ZM664.119 445.7C651.159 445.7 640.059 442.88 630.819 437.24C621.579 431.54 614.469 423.62 609.489 413.48C604.569 403.34 602.109 391.58 602.109 378.2C602.109 364.82 604.569 353.06 609.489 342.92C614.469 332.78 621.579 324.89 630.819 319.25C640.059 313.55 651.159 310.7 664.119 310.7C679.059 310.7 691.509 314.45 701.469 321.95C711.429 329.39 718.419 339.44 722.439 352.1L700.569 358.13C698.049 349.67 693.759 343.07 687.699 338.33C681.639 333.53 673.779 331.13 664.119 331.13C655.419 331.13 648.159 333.08 642.339 336.98C636.579 340.88 632.229 346.37 629.289 353.45C626.409 360.47 624.939 368.72 624.879 378.2C624.879 387.68 626.319 395.96 629.199 403.04C632.139 410.06 636.519 415.52 642.339 419.42C648.159 423.32 655.419 425.27 664.119 425.27C673.779 425.27 681.639 422.87 687.699 418.07C693.759 413.27 698.049 406.67 700.569 398.27L722.439 404.3C718.419 416.96 711.429 427.04 701.469 434.54C691.509 441.98 679.059 445.7 664.119 445.7ZM785.13 445.7C775.41 445.7 766.92 443.51 759.66 439.13C752.4 434.75 746.76 428.72 742.74 421.04C738.78 413.3 736.8 404.42 736.8 394.4C736.8 384.2 738.84 375.26 742.92 367.58C747 359.9 752.67 353.9 759.93 349.58C767.19 345.26 775.59 343.1 785.13 343.1C794.91 343.1 803.43 345.29 810.69 349.67C817.95 354.05 823.59 360.11 827.61 367.85C831.63 375.53 833.64 384.38 833.64 394.4C833.64 404.48 831.6 413.39 827.52 421.13C823.5 428.81 817.86 434.84 810.6 439.22C803.34 443.54 794.85 445.7 785.13 445.7ZM785.13 425.36C793.77 425.36 800.19 422.48 804.39 416.72C808.59 410.96 810.69 403.52 810.69 394.4C810.69 384.98 808.56 377.48 804.3 371.9C800.04 366.26 793.65 363.44 785.13 363.44C779.31 363.44 774.51 364.76 770.73 367.4C767.01 369.98 764.25 373.61 762.45 378.29C760.65 382.91 759.75 388.28 759.75 394.4C759.75 403.82 761.88 411.35 766.14 416.99C770.46 422.57 776.79 425.36 785.13 425.36ZM892.439 445.7C883.499 445.7 875.699 443.45 869.039 438.95C862.379 434.45 857.219 428.33 853.559 420.59C849.899 412.85 848.069 404.12 848.069 394.4C848.069 384.56 849.899 375.8 853.559 368.12C857.279 360.38 862.529 354.29 869.309 349.85C876.089 345.35 884.069 343.1 893.249 343.1C902.489 343.1 910.229 345.35 916.469 349.85C922.769 354.29 927.539 360.38 930.779 368.12C934.019 375.86 935.639 384.62 935.639 394.4C935.639 404.06 934.019 412.79 930.779 420.59C927.539 428.33 922.709 434.45 916.289 438.95C909.869 443.45 901.919 445.7 892.439 445.7ZM895.769 426.26C901.589 426.26 906.269 424.94 909.809 422.3C913.409 419.6 916.019 415.85 917.639 411.05C919.319 406.25 920.159 400.7 920.159 394.4C920.159 388.04 919.319 382.49 917.639 377.75C916.019 372.95 913.469 369.23 909.989 366.59C906.509 363.89 902.009 362.54 896.489 362.54C890.669 362.54 885.869 363.98 882.089 366.86C878.309 369.68 875.519 373.52 873.719 378.38C871.919 383.18 871.019 388.52 871.019 394.4C871.019 400.34 871.889 405.74 873.629 410.6C875.429 415.4 878.159 419.21 881.819 422.03C885.479 424.85 890.129 426.26 895.769 426.26ZM920.159 443V374.78H917.459V313.4H939.329V443H920.159ZM1008.75 445.7C998.913 445.7 990.273 443.57 982.833 439.31C975.393 435.05 969.573 429.14 965.373 421.58C961.233 414.02 959.163 405.32 959.163 395.48C959.163 384.86 961.203 375.65 965.283 367.85C969.363 359.99 975.033 353.9 982.293 349.58C989.553 345.26 997.953 343.1 1007.49 343.1C1017.57 343.1 1026.12 345.47 1033.14 350.21C1040.22 354.89 1045.47 361.52 1048.89 370.1C1052.31 378.68 1053.6 388.79 1052.76 400.43H1031.25V392.51C1031.19 381.95 1029.33 374.24 1025.67 369.38C1022.01 364.52 1016.25 362.09 1008.39 362.09C999.513 362.09 992.913 364.85 988.593 370.37C984.273 375.83 982.113 383.84 982.113 394.4C982.113 404.24 984.273 411.86 988.593 417.26C992.913 422.66 999.213 425.36 1007.49 425.36C1012.83 425.36 1017.42 424.19 1021.26 421.85C1025.16 419.45 1028.16 416 1030.26 411.5L1051.68 417.98C1047.96 426.74 1042.2 433.55 1034.4 438.41C1026.66 443.27 1018.11 445.7 1008.75 445.7ZM975.273 400.43V384.05H1042.14V400.43H975.273ZM1119.55 445.7C1110.07 445.7 1102.12 443.45 1095.7 438.95C1089.28 434.45 1084.45 428.33 1081.21 420.59C1077.97 412.79 1076.35 404.06 1076.35 394.4C1076.35 384.62 1077.97 375.86 1081.21 368.12C1084.45 360.38 1089.19 354.29 1095.43 349.85C1101.73 345.35 1109.5 343.1 1118.74 343.1C1127.92 343.1 1135.87 345.35 1142.59 349.85C1149.37 354.29 1154.62 360.38 1158.34 368.12C1162.06 375.8 1163.92 384.56 1163.92 394.4C1163.92 404.12 1162.09 412.85 1158.43 420.59C1154.77 428.33 1149.61 434.45 1142.95 438.95C1136.29 443.45 1128.49 445.7 1119.55 445.7ZM1072.66 443V313.4H1094.53V374.78H1091.83V443H1072.66ZM1116.22 426.26C1121.86 426.26 1126.51 424.85 1130.17 422.03C1133.83 419.21 1136.53 415.4 1138.27 410.6C1140.07 405.74 1140.97 400.34 1140.97 394.4C1140.97 388.52 1140.07 383.18 1138.27 378.38C1136.47 373.52 1133.68 369.68 1129.9 366.86C1126.12 363.98 1121.32 362.54 1115.5 362.54C1109.98 362.54 1105.48 363.89 1102 366.59C1098.52 369.23 1095.94 372.95 1094.26 377.75C1092.64 382.49 1091.83 388.04 1091.83 394.4C1091.83 400.7 1092.64 406.25 1094.26 411.05C1095.94 415.85 1098.55 419.6 1102.09 422.3C1105.69 424.94 1110.4 426.26 1116.22 426.26ZM1185.56 443V310.7H1207.25V443H1185.56ZM1277.14 445.7C1267.42 445.7 1258.93 443.51 1251.67 439.13C1244.41 434.75 1238.77 428.72 1234.75 421.04C1230.79 413.3 1228.81 404.42 1228.81 394.4C1228.81 384.2 1230.85 375.26 1234.93 367.58C1239.01 359.9 1244.68 353.9 1251.94 349.58C1259.2 345.26 1267.6 343.1 1277.14 343.1C1286.92 343.1 1295.44 345.29 1302.7 349.67C1309.96 354.05 1315.6 360.11 1319.62 367.85C1323.64 375.53 1325.65 384.38 1325.65 394.4C1325.65 404.48 1323.61 413.39 1319.53 421.13C1315.51 428.81 1309.87 434.84 1302.61 439.22C1295.35 443.54 1286.86 445.7 1277.14 445.7ZM1277.14 425.36C1285.78 425.36 1292.2 422.48 1296.4 416.72C1300.6 410.96 1302.7 403.52 1302.7 394.4C1302.7 384.98 1300.57 377.48 1296.31 371.9C1292.05 366.26 1285.66 363.44 1277.14 363.44C1271.32 363.44 1266.52 364.76 1262.74 367.4C1259.02 369.98 1256.26 373.61 1254.46 378.29C1252.66 382.91 1251.76 388.28 1251.76 394.4C1251.76 403.82 1253.89 411.35 1258.15 416.99C1262.47 422.57 1268.8 425.36 1277.14 425.36ZM1388.41 445.7C1378.69 445.7 1370.2 443.51 1362.94 439.13C1355.68 434.75 1350.04 428.72 1346.02 421.04C1342.06 413.3 1340.08 404.42 1340.08 394.4C1340.08 384.2 1342.12 375.26 1346.2 367.58C1350.28 359.9 1355.95 353.9 1363.21 349.58C1370.47 345.26 1378.87 343.1 1388.41 343.1C1398.19 343.1 1406.71 345.29 1413.97 349.67C1421.23 354.05 1426.87 360.11 1430.89 367.85C1434.91 375.53 1436.92 384.38 1436.92 394.4C1436.92 404.48 1434.88 413.39 1430.8 421.13C1426.78 428.81 1421.14 434.84 1413.88 439.22C1406.62 443.54 1398.13 445.7 1388.41 445.7ZM1388.41 425.36C1397.05 425.36 1403.47 422.48 1407.67 416.72C1411.87 410.96 1413.97 403.52 1413.97 394.4C1413.97 384.98 1411.84 377.48 1407.58 371.9C1403.32 366.26 1396.93 363.44 1388.41 363.44C1382.59 363.44 1377.79 364.76 1374.01 367.4C1370.29 369.98 1367.53 373.61 1365.73 378.29C1363.93 382.91 1363.03 388.28 1363.03 394.4C1363.03 403.82 1365.16 411.35 1369.42 416.99C1373.74 422.57 1380.07 425.36 1388.41 425.36ZM1573.48 443V383.96C1573.48 377.3 1571.83 372.11 1568.53 368.39C1565.23 364.61 1560.76 362.72 1555.12 362.72C1551.64 362.72 1548.52 363.53 1545.76 365.15C1543 366.71 1540.81 369.05 1539.19 372.17C1537.57 375.23 1536.76 378.89 1536.76 383.15L1527.13 377.48C1527.07 370.76 1528.57 364.85 1531.63 359.75C1534.75 354.59 1538.95 350.57 1544.23 347.69C1549.51 344.81 1555.39 343.37 1561.87 343.37C1572.61 343.37 1580.83 346.61 1586.53 353.09C1592.29 359.51 1595.17 367.97 1595.17 378.47V443H1573.48ZM1456.57 443V345.8H1475.74V375.95H1478.44V443H1456.57ZM1515.16 443V384.23C1515.16 377.45 1513.51 372.17 1510.21 368.39C1506.91 364.61 1502.41 362.72 1496.71 362.72C1491.19 362.72 1486.75 364.61 1483.39 368.39C1480.09 372.17 1478.44 377.09 1478.44 383.15L1468.72 376.67C1468.72 370.37 1470.28 364.7 1473.4 359.66C1476.52 354.62 1480.72 350.66 1486 347.78C1491.34 344.84 1497.31 343.37 1503.91 343.37C1511.17 343.37 1517.23 344.93 1522.09 348.05C1527.01 351.11 1530.67 355.31 1533.07 360.65C1535.53 365.93 1536.76 371.9 1536.76 378.56V443H1515.16ZM1702.65 445.7C1693.17 445.7 1684.62 444.05 1677 440.75C1669.44 437.45 1663.2 432.74 1658.28 426.62C1653.42 420.44 1650.33 413.12 1649.01 404.66L1671.51 401.24C1673.43 408.92 1677.36 414.86 1683.3 419.06C1689.3 423.26 1696.2 425.36 1704 425.36C1708.62 425.36 1712.97 424.64 1717.05 423.2C1721.13 421.76 1724.43 419.66 1726.95 416.9C1729.53 414.14 1730.82 410.75 1730.82 406.73C1730.82 404.93 1730.52 403.28 1729.92 401.78C1729.32 400.22 1728.42 398.84 1727.22 397.64C1726.08 396.44 1724.58 395.36 1722.72 394.4C1720.92 393.38 1718.82 392.51 1716.42 391.79L1682.94 381.89C1680.06 381.05 1676.94 379.94 1673.58 378.56C1670.28 377.12 1667.13 375.17 1664.13 372.71C1661.19 370.19 1658.76 367.01 1656.84 363.17C1654.98 359.27 1654.05 354.47 1654.05 348.77C1654.05 340.43 1656.15 333.44 1660.35 327.8C1664.61 322.1 1670.31 317.84 1677.45 315.02C1684.65 312.2 1692.63 310.82 1701.39 310.88C1710.27 310.94 1718.19 312.47 1725.15 315.47C1732.11 318.41 1737.93 322.7 1742.61 328.34C1747.29 333.98 1750.59 340.79 1752.51 348.77L1729.2 352.82C1728.24 348.26 1726.38 344.39 1723.62 341.21C1720.92 337.97 1717.59 335.51 1713.63 333.83C1709.73 332.15 1705.56 331.25 1701.12 331.13C1696.8 331.07 1692.78 331.73 1689.06 333.11C1685.4 334.43 1682.43 336.35 1680.15 338.87C1677.93 341.39 1676.82 344.33 1676.82 347.69C1676.82 350.87 1677.78 353.48 1679.7 355.52C1681.62 357.5 1683.99 359.09 1686.81 360.29C1689.69 361.43 1692.6 362.39 1695.54 363.17L1718.76 369.65C1721.94 370.49 1725.51 371.63 1729.47 373.07C1733.43 374.51 1737.24 376.52 1740.9 379.1C1744.56 381.68 1747.56 385.07 1749.9 389.27C1752.3 393.47 1753.5 398.81 1753.5 405.29C1753.5 412.01 1752.09 417.92 1749.27 423.02C1746.51 428.06 1742.76 432.26 1738.02 435.62C1733.28 438.98 1727.85 441.5 1721.73 443.18C1715.67 444.86 1709.31 445.7 1702.65 445.7ZM1829.95 443C1823.53 444.2 1817.23 444.71 1811.05 444.53C1804.93 444.41 1799.44 443.3 1794.58 441.2C1789.72 439.04 1786.03 435.65 1783.51 431.03C1781.29 426.83 1780.12 422.54 1780 418.16C1779.88 413.78 1779.82 408.83 1779.82 403.31V318.8H1801.42V402.05C1801.42 405.95 1801.45 409.37 1801.51 412.31C1801.63 415.25 1802.26 417.65 1803.4 419.51C1805.56 423.11 1809.01 425.12 1813.75 425.54C1818.49 425.96 1823.89 425.72 1829.95 424.82V443ZM1762.18 362.81V345.8H1829.95V362.81H1762.18ZM1887.3 445.79C1880.1 445.79 1874.16 444.59 1869.48 442.19C1864.8 439.79 1861.08 436.73 1858.32 433.01C1855.56 429.29 1853.52 425.33 1852.2 421.13C1850.88 416.93 1850.01 412.97 1849.59 409.25C1849.23 405.47 1849.05 402.41 1849.05 400.07V345.8H1871.01V392.6C1871.01 395.6 1871.22 398.99 1871.64 402.77C1872.06 406.49 1873.02 410.09 1874.52 413.57C1876.08 416.99 1878.36 419.81 1881.36 422.03C1884.42 424.25 1888.53 425.36 1893.69 425.36C1896.45 425.36 1899.18 424.91 1901.88 424.01C1904.58 423.11 1907.01 421.58 1909.17 419.42C1911.39 417.2 1913.16 414.17 1914.48 410.33C1915.8 406.49 1916.46 401.63 1916.46 395.75L1929.33 401.24C1929.33 409.52 1927.71 417.02 1924.47 423.74C1921.29 430.46 1916.58 435.83 1910.34 439.85C1904.1 443.81 1896.42 445.79 1887.3 445.79ZM1919.07 443V412.85H1916.46V345.8H1938.24V443H1919.07ZM2002.5 445.7C1993.56 445.7 1985.76 443.45 1979.1 438.95C1972.44 434.45 1967.28 428.33 1963.62 420.59C1959.96 412.85 1958.13 404.12 1958.13 394.4C1958.13 384.56 1959.96 375.8 1963.62 368.12C1967.34 360.38 1972.59 354.29 1979.37 349.85C1986.15 345.35 1994.13 343.1 2003.31 343.1C2012.55 343.1 2020.29 345.35 2026.53 349.85C2032.83 354.29 2037.6 360.38 2040.84 368.12C2044.08 375.86 2045.7 384.62 2045.7 394.4C2045.7 404.06 2044.08 412.79 2040.84 420.59C2037.6 428.33 2032.77 434.45 2026.35 438.95C2019.93 443.45 2011.98 445.7 2002.5 445.7ZM2005.83 426.26C2011.65 426.26 2016.33 424.94 2019.87 422.3C2023.47 419.6 2026.08 415.85 2027.7 411.05C2029.38 406.25 2030.22 400.7 2030.22 394.4C2030.22 388.04 2029.38 382.49 2027.7 377.75C2026.08 372.95 2023.53 369.23 2020.05 366.59C2016.57 363.89 2012.07 362.54 2006.55 362.54C2000.73 362.54 1995.93 363.98 1992.15 366.86C1988.37 369.68 1985.58 373.52 1983.78 378.38C1981.98 383.18 1981.08 388.52 1981.08 394.4C1981.08 400.34 1981.95 405.74 1983.69 410.6C1985.49 415.4 1988.22 419.21 1991.88 422.03C1995.54 424.85 2000.19 426.26 2005.83 426.26ZM2030.22 443V374.78H2027.52V313.4H2049.39V443H2030.22ZM2076.42 331.04V311.15H2098.11V331.04H2076.42ZM2076.42 443V345.8H2098.11V443H2076.42ZM2168 445.7C2158.28 445.7 2149.79 443.51 2142.53 439.13C2135.27 434.75 2129.63 428.72 2125.61 421.04C2121.65 413.3 2119.67 404.42 2119.67 394.4C2119.67 384.2 2121.71 375.26 2125.79 367.58C2129.87 359.9 2135.54 353.9 2142.8 349.58C2150.06 345.26 2158.46 343.1 2168 343.1C2177.78 343.1 2186.3 345.29 2193.56 349.67C2200.82 354.05 2206.46 360.11 2210.48 367.85C2214.5 375.53 2216.51 384.38 2216.51 394.4C2216.51 404.48 2214.47 413.39 2210.39 421.13C2206.37 428.81 2200.73 434.84 2193.47 439.22C2186.21 443.54 2177.72 445.7 2168 445.7ZM2168 425.36C2176.64 425.36 2183.06 422.48 2187.26 416.72C2191.46 410.96 2193.56 403.52 2193.56 394.4C2193.56 384.98 2191.43 377.48 2187.17 371.9C2182.91 366.26 2176.52 363.44 2168 363.44C2162.18 363.44 2157.38 364.76 2153.6 367.4C2149.88 369.98 2147.12 373.61 2145.32 378.29C2143.52 382.91 2142.62 388.28 2142.62 394.4C2142.62 403.82 2144.75 411.35 2149.01 416.99C2153.33 422.57 2159.66 425.36 2168 425.36ZM2271.59 445.7C2259.59 445.7 2249.84 443 2242.34 437.6C2234.84 432.2 2230.28 424.61 2228.66 414.83L2250.8 411.41C2251.94 416.21 2254.46 419.99 2258.36 422.75C2262.26 425.51 2267.18 426.89 2273.12 426.89C2278.34 426.89 2282.36 425.87 2285.18 423.83C2288.06 421.73 2289.5 418.88 2289.5 415.28C2289.5 413.06 2288.96 411.29 2287.88 409.97C2286.86 408.59 2284.58 407.27 2281.04 406.01C2277.5 404.75 2272.07 403.16 2264.75 401.24C2256.59 399.08 2250.11 396.77 2245.31 394.31C2240.51 391.79 2237.06 388.82 2234.96 385.4C2232.86 381.98 2231.81 377.84 2231.81 372.98C2231.81 366.92 2233.4 361.64 2236.58 357.14C2239.76 352.64 2244.2 349.19 2249.9 346.79C2255.6 344.33 2262.32 343.1 2270.06 343.1C2277.62 343.1 2284.31 344.27 2290.13 346.61C2296.01 348.95 2300.75 352.28 2304.35 356.6C2307.95 360.92 2310.17 365.99 2311.01 371.81L2288.87 375.77C2288.33 371.63 2286.44 368.36 2283.2 365.96C2280.02 363.56 2275.76 362.21 2270.42 361.91C2265.32 361.61 2261.21 362.39 2258.09 364.25C2254.97 366.05 2253.41 368.6 2253.41 371.9C2253.41 373.76 2254.04 375.35 2255.3 376.67C2256.56 377.99 2259.08 379.31 2262.86 380.63C2266.7 381.95 2272.4 383.57 2279.96 385.49C2287.7 387.47 2293.88 389.75 2298.5 392.33C2303.18 394.85 2306.54 397.88 2308.58 401.42C2310.68 404.96 2311.73 409.25 2311.73 414.29C2311.73 424.07 2308.16 431.75 2301.02 437.33C2293.94 442.91 2284.13 445.7 2271.59 445.7Z" fill="white"/>
<path d="M377.342 313.4H399.122L364.562 443H342.782L377.342 313.4Z" fill="black"/>
</svg>
