<svg width="2106" height="136" viewBox="0 0 2106 136" fill="none" xmlns="http://www.w3.org/2000/svg">
<path d="M43.5621 119.5L0.362109 76.3L43.5621 33.1L57.0621 46.51L26.2821 76.3L57.0621 106.09L43.5621 119.5ZM286.149 119.5L272.739 106.09L303.429 76.3L272.739 46.51L286.149 33.1L329.439 76.3L286.149 119.5ZM458.119 135.7C445.159 135.7 434.059 132.88 424.819 127.24C415.579 121.54 408.469 113.62 403.489 103.48C398.569 93.34 396.109 81.58 396.109 68.2C396.109 54.82 398.569 43.06 403.489 32.92C408.469 22.78 415.579 14.89 424.819 9.24999C434.059 3.54999 445.159 0.699997 458.119 0.699997C473.059 0.699997 485.509 4.45 495.469 11.95C505.429 19.39 512.419 29.44 516.439 42.1L494.569 48.13C492.049 39.67 487.759 33.07 481.699 28.33C475.639 23.53 467.779 21.13 458.119 21.13C449.419 21.13 442.159 23.08 436.339 26.98C430.579 30.88 426.229 36.37 423.289 43.45C420.409 50.47 418.939 58.72 418.879 68.2C418.879 77.68 420.319 85.96 423.199 93.04C426.139 100.06 430.519 105.52 436.339 109.42C442.159 113.32 449.419 115.27 458.119 115.27C467.779 115.27 475.639 112.87 481.699 108.07C487.759 103.27 492.049 96.67 494.569 88.27L516.439 94.3C512.419 106.96 505.429 117.04 495.469 124.54C485.509 131.98 473.059 135.7 458.119 135.7ZM579.13 135.7C569.41 135.7 560.92 133.51 553.66 129.13C546.4 124.75 540.76 118.72 536.74 111.04C532.78 103.3 530.8 94.42 530.8 84.4C530.8 74.2 532.84 65.26 536.92 57.58C541 49.9 546.67 43.9 553.93 39.58C561.19 35.26 569.59 33.1 579.13 33.1C588.91 33.1 597.43 35.29 604.69 39.67C611.95 44.05 617.59 50.11 621.61 57.85C625.63 65.53 627.64 74.38 627.64 84.4C627.64 94.48 625.6 103.39 621.52 111.13C617.5 118.81 611.86 124.84 604.6 129.22C597.34 133.54 588.85 135.7 579.13 135.7ZM579.13 115.36C587.77 115.36 594.19 112.48 598.39 106.72C602.59 100.96 604.69 93.52 604.69 84.4C604.69 74.98 602.56 67.48 598.3 61.9C594.04 56.26 587.65 53.44 579.13 53.44C573.31 53.44 568.51 54.76 564.73 57.4C561.01 59.98 558.25 63.61 556.45 68.29C554.65 72.91 553.75 78.28 553.75 84.4C553.75 93.82 555.88 101.35 560.14 106.99C564.46 112.57 570.79 115.36 579.13 115.36ZM686.439 135.7C677.499 135.7 669.699 133.45 663.039 128.95C656.379 124.45 651.219 118.33 647.559 110.59C643.899 102.85 642.069 94.12 642.069 84.4C642.069 74.56 643.899 65.8 647.559 58.12C651.279 50.38 656.529 44.29 663.309 39.85C670.089 35.35 678.069 33.1 687.249 33.1C696.489 33.1 704.229 35.35 710.469 39.85C716.769 44.29 721.539 50.38 724.779 58.12C728.019 65.86 729.639 74.62 729.639 84.4C729.639 94.06 728.019 102.79 724.779 110.59C721.539 118.33 716.709 124.45 710.289 128.95C703.869 133.45 695.919 135.7 686.439 135.7ZM689.769 116.26C695.589 116.26 700.269 114.94 703.809 112.3C707.409 109.6 710.019 105.85 711.639 101.05C713.319 96.25 714.159 90.7 714.159 84.4C714.159 78.04 713.319 72.49 711.639 67.75C710.019 62.95 707.469 59.23 703.989 56.59C700.509 53.89 696.009 52.54 690.489 52.54C684.669 52.54 679.869 53.98 676.089 56.86C672.309 59.68 669.519 63.52 667.719 68.38C665.919 73.18 665.019 78.52 665.019 84.4C665.019 90.34 665.889 95.74 667.629 100.6C669.429 105.4 672.159 109.21 675.819 112.03C679.479 114.85 684.129 116.26 689.769 116.26ZM714.159 133V64.78H711.459V3.39999H733.329V133H714.159ZM802.753 135.7C792.913 135.7 784.273 133.57 776.833 129.31C769.393 125.05 763.573 119.14 759.373 111.58C755.233 104.02 753.163 95.32 753.163 85.48C753.163 74.86 755.203 65.65 759.283 57.85C763.363 49.99 769.033 43.9 776.293 39.58C783.553 35.26 791.953 33.1 801.493 33.1C811.573 33.1 820.123 35.47 827.143 40.21C834.223 44.89 839.473 51.52 842.893 60.1C846.313 68.68 847.603 78.79 846.763 90.43H825.253V82.51C825.193 71.95 823.333 64.24 819.673 59.38C816.013 54.52 810.253 52.09 802.393 52.09C793.513 52.09 786.913 54.85 782.593 60.37C778.273 65.83 776.113 73.84 776.113 84.4C776.113 94.24 778.273 101.86 782.593 107.26C786.913 112.66 793.213 115.36 801.493 115.36C806.833 115.36 811.423 114.19 815.263 111.85C819.163 109.45 822.163 106 824.263 101.5L845.683 107.98C841.963 116.74 836.203 123.55 828.403 128.41C820.663 133.27 812.113 135.7 802.753 135.7ZM769.273 90.43V74.05H836.143V90.43H769.273ZM913.554 135.7C904.074 135.7 896.124 133.45 889.704 128.95C883.284 124.45 878.454 118.33 875.214 110.59C871.974 102.79 870.354 94.06 870.354 84.4C870.354 74.62 871.974 65.86 875.214 58.12C878.454 50.38 883.194 44.29 889.434 39.85C895.734 35.35 903.504 33.1 912.744 33.1C921.924 33.1 929.874 35.35 936.594 39.85C943.374 44.29 948.624 50.38 952.344 58.12C956.064 65.8 957.924 74.56 957.924 84.4C957.924 94.12 956.094 102.85 952.434 110.59C948.774 118.33 943.614 124.45 936.954 128.95C930.294 133.45 922.494 135.7 913.554 135.7ZM866.664 133V3.39999H888.534V64.78H885.834V133H866.664ZM910.224 116.26C915.864 116.26 920.514 114.85 924.174 112.03C927.834 109.21 930.534 105.4 932.274 100.6C934.074 95.74 934.974 90.34 934.974 84.4C934.974 78.52 934.074 73.18 932.274 68.38C930.474 63.52 927.684 59.68 923.904 56.86C920.124 53.98 915.324 52.54 909.504 52.54C903.984 52.54 899.484 53.89 896.004 56.59C892.524 59.23 889.944 62.95 888.264 67.75C886.644 72.49 885.834 78.04 885.834 84.4C885.834 90.7 886.644 96.25 888.264 101.05C889.944 105.85 892.554 109.6 896.094 112.3C899.694 114.94 904.404 116.26 910.224 116.26ZM979.562 133V0.699997H1001.25V133H979.562ZM1071.14 135.7C1061.42 135.7 1052.93 133.51 1045.67 129.13C1038.41 124.75 1032.77 118.72 1028.75 111.04C1024.79 103.3 1022.81 94.42 1022.81 84.4C1022.81 74.2 1024.85 65.26 1028.93 57.58C1033.01 49.9 1038.68 43.9 1045.94 39.58C1053.2 35.26 1061.6 33.1 1071.14 33.1C1080.92 33.1 1089.44 35.29 1096.7 39.67C1103.96 44.05 1109.6 50.11 1113.62 57.85C1117.64 65.53 1119.65 74.38 1119.65 84.4C1119.65 94.48 1117.61 103.39 1113.53 111.13C1109.51 118.81 1103.87 124.84 1096.61 129.22C1089.35 133.54 1080.86 135.7 1071.14 135.7ZM1071.14 115.36C1079.78 115.36 1086.2 112.48 1090.4 106.72C1094.6 100.96 1096.7 93.52 1096.7 84.4C1096.7 74.98 1094.57 67.48 1090.31 61.9C1086.05 56.26 1079.66 53.44 1071.14 53.44C1065.32 53.44 1060.52 54.76 1056.74 57.4C1053.02 59.98 1050.26 63.61 1048.46 68.29C1046.66 72.91 1045.76 78.28 1045.76 84.4C1045.76 93.82 1047.89 101.35 1052.15 106.99C1056.47 112.57 1062.8 115.36 1071.14 115.36ZM1182.41 135.7C1172.69 135.7 1164.2 133.51 1156.94 129.13C1149.68 124.75 1144.04 118.72 1140.02 111.04C1136.06 103.3 1134.08 94.42 1134.08 84.4C1134.08 74.2 1136.12 65.26 1140.2 57.58C1144.28 49.9 1149.95 43.9 1157.21 39.58C1164.47 35.26 1172.87 33.1 1182.41 33.1C1192.19 33.1 1200.71 35.29 1207.97 39.67C1215.23 44.05 1220.87 50.11 1224.89 57.85C1228.91 65.53 1230.92 74.38 1230.92 84.4C1230.92 94.48 1228.88 103.39 1224.8 111.13C1220.78 118.81 1215.14 124.84 1207.88 129.22C1200.62 133.54 1192.13 135.7 1182.41 135.7ZM1182.41 115.36C1191.05 115.36 1197.47 112.48 1201.67 106.72C1205.87 100.96 1207.97 93.52 1207.97 84.4C1207.97 74.98 1205.84 67.48 1201.58 61.9C1197.32 56.26 1190.93 53.44 1182.41 53.44C1176.59 53.44 1171.79 54.76 1168.01 57.4C1164.29 59.98 1161.53 63.61 1159.73 68.29C1157.93 72.91 1157.03 78.28 1157.03 84.4C1157.03 93.82 1159.16 101.35 1163.42 106.99C1167.74 112.57 1174.07 115.36 1182.41 115.36ZM1367.48 133V73.96C1367.48 67.3 1365.83 62.11 1362.53 58.39C1359.23 54.61 1354.76 52.72 1349.12 52.72C1345.64 52.72 1342.52 53.53 1339.76 55.15C1337 56.71 1334.81 59.05 1333.19 62.17C1331.57 65.23 1330.76 68.89 1330.76 73.15L1321.13 67.48C1321.07 60.76 1322.57 54.85 1325.63 49.75C1328.75 44.59 1332.95 40.57 1338.23 37.69C1343.51 34.81 1349.39 33.37 1355.87 33.37C1366.61 33.37 1374.83 36.61 1380.53 43.09C1386.29 49.51 1389.17 57.97 1389.17 68.47V133H1367.48ZM1250.57 133V35.8H1269.74V65.95H1272.44V133H1250.57ZM1309.16 133V74.23C1309.16 67.45 1307.51 62.17 1304.21 58.39C1300.91 54.61 1296.41 52.72 1290.71 52.72C1285.19 52.72 1280.75 54.61 1277.39 58.39C1274.09 62.17 1272.44 67.09 1272.44 73.15L1262.72 66.67C1262.72 60.37 1264.28 54.7 1267.4 49.66C1270.52 44.62 1274.72 40.66 1280 37.78C1285.34 34.84 1291.31 33.37 1297.91 33.37C1305.17 33.37 1311.23 34.93 1316.09 38.05C1321.01 41.11 1324.67 45.31 1327.07 50.65C1329.53 55.93 1330.76 61.9 1330.76 68.56V133H1309.16ZM1496.65 135.7C1487.17 135.7 1478.62 134.05 1471 130.75C1463.44 127.45 1457.2 122.74 1452.28 116.62C1447.42 110.44 1444.33 103.12 1443.01 94.66L1465.51 91.24C1467.43 98.92 1471.36 104.86 1477.3 109.06C1483.3 113.26 1490.2 115.36 1498 115.36C1502.62 115.36 1506.97 114.64 1511.05 113.2C1515.13 111.76 1518.43 109.66 1520.95 106.9C1523.53 104.14 1524.82 100.75 1524.82 96.73C1524.82 94.93 1524.52 93.28 1523.92 91.78C1523.32 90.22 1522.42 88.84 1521.22 87.64C1520.08 86.44 1518.58 85.36 1516.72 84.4C1514.92 83.38 1512.82 82.51 1510.42 81.79L1476.94 71.89C1474.06 71.05 1470.94 69.94 1467.58 68.56C1464.28 67.12 1461.13 65.17 1458.13 62.71C1455.19 60.19 1452.76 57.01 1450.84 53.17C1448.98 49.27 1448.05 44.47 1448.05 38.77C1448.05 30.43 1450.15 23.44 1454.35 17.8C1458.61 12.1 1464.31 7.83999 1471.45 5.02C1478.65 2.19999 1486.63 0.819992 1495.39 0.879995C1504.27 0.939991 1512.19 2.46999 1519.15 5.47C1526.11 8.41 1531.93 12.7 1536.61 18.34C1541.29 23.98 1544.59 30.79 1546.51 38.77L1523.2 42.82C1522.24 38.26 1520.38 34.39 1517.62 31.21C1514.92 27.97 1511.59 25.51 1507.63 23.83C1503.73 22.15 1499.56 21.25 1495.12 21.13C1490.8 21.07 1486.78 21.73 1483.06 23.11C1479.4 24.43 1476.43 26.35 1474.15 28.87C1471.93 31.39 1470.82 34.33 1470.82 37.69C1470.82 40.87 1471.78 43.48 1473.7 45.52C1475.62 47.5 1477.99 49.09 1480.81 50.29C1483.69 51.43 1486.6 52.39 1489.54 53.17L1512.76 59.65C1515.94 60.49 1519.51 61.63 1523.47 63.07C1527.43 64.51 1531.24 66.52 1534.9 69.1C1538.56 71.68 1541.56 75.07 1543.9 79.27C1546.3 83.47 1547.5 88.81 1547.5 95.29C1547.5 102.01 1546.09 107.92 1543.27 113.02C1540.51 118.06 1536.76 122.26 1532.02 125.62C1527.28 128.98 1521.85 131.5 1515.73 133.18C1509.67 134.86 1503.31 135.7 1496.65 135.7ZM1623.95 133C1617.53 134.2 1611.23 134.71 1605.05 134.53C1598.93 134.41 1593.44 133.3 1588.58 131.2C1583.72 129.04 1580.03 125.65 1577.51 121.03C1575.29 116.83 1574.12 112.54 1574 108.16C1573.88 103.78 1573.82 98.83 1573.82 93.31V8.79999H1595.42V92.05C1595.42 95.95 1595.45 99.37 1595.51 102.31C1595.63 105.25 1596.26 107.65 1597.4 109.51C1599.56 113.11 1603.01 115.12 1607.75 115.54C1612.49 115.96 1617.89 115.72 1623.95 114.82V133ZM1556.18 52.81V35.8H1623.95V52.81H1556.18ZM1681.3 135.79C1674.1 135.79 1668.16 134.59 1663.48 132.19C1658.8 129.79 1655.08 126.73 1652.32 123.01C1649.56 119.29 1647.52 115.33 1646.2 111.13C1644.88 106.93 1644.01 102.97 1643.59 99.25C1643.23 95.47 1643.05 92.41 1643.05 90.07V35.8H1665.01V82.6C1665.01 85.6 1665.22 88.99 1665.64 92.77C1666.06 96.49 1667.02 100.09 1668.52 103.57C1670.08 106.99 1672.36 109.81 1675.36 112.03C1678.42 114.25 1682.53 115.36 1687.69 115.36C1690.45 115.36 1693.18 114.91 1695.88 114.01C1698.58 113.11 1701.01 111.58 1703.17 109.42C1705.39 107.2 1707.16 104.17 1708.48 100.33C1709.8 96.49 1710.46 91.63 1710.46 85.75L1723.33 91.24C1723.33 99.52 1721.71 107.02 1718.47 113.74C1715.29 120.46 1710.58 125.83 1704.34 129.85C1698.1 133.81 1690.42 135.79 1681.3 135.79ZM1713.07 133V102.85H1710.46V35.8H1732.24V133H1713.07ZM1796.5 135.7C1787.56 135.7 1779.76 133.45 1773.1 128.95C1766.44 124.45 1761.28 118.33 1757.62 110.59C1753.96 102.85 1752.13 94.12 1752.13 84.4C1752.13 74.56 1753.96 65.8 1757.62 58.12C1761.34 50.38 1766.59 44.29 1773.37 39.85C1780.15 35.35 1788.13 33.1 1797.31 33.1C1806.55 33.1 1814.29 35.35 1820.53 39.85C1826.83 44.29 1831.6 50.38 1834.84 58.12C1838.08 65.86 1839.7 74.62 1839.7 84.4C1839.7 94.06 1838.08 102.79 1834.84 110.59C1831.6 118.33 1826.77 124.45 1820.35 128.95C1813.93 133.45 1805.98 135.7 1796.5 135.7ZM1799.83 116.26C1805.65 116.26 1810.33 114.94 1813.87 112.3C1817.47 109.6 1820.08 105.85 1821.7 101.05C1823.38 96.25 1824.22 90.7 1824.22 84.4C1824.22 78.04 1823.38 72.49 1821.7 67.75C1820.08 62.95 1817.53 59.23 1814.05 56.59C1810.57 53.89 1806.07 52.54 1800.55 52.54C1794.73 52.54 1789.93 53.98 1786.15 56.86C1782.37 59.68 1779.58 63.52 1777.78 68.38C1775.98 73.18 1775.08 78.52 1775.08 84.4C1775.08 90.34 1775.95 95.74 1777.69 100.6C1779.49 105.4 1782.22 109.21 1785.88 112.03C1789.54 114.85 1794.19 116.26 1799.83 116.26ZM1824.22 133V64.78H1821.52V3.39999H1843.39V133H1824.22ZM1870.42 21.04V1.15H1892.11V21.04H1870.42ZM1870.42 133V35.8H1892.11V133H1870.42ZM1962 135.7C1952.28 135.7 1943.79 133.51 1936.53 129.13C1929.27 124.75 1923.63 118.72 1919.61 111.04C1915.65 103.3 1913.67 94.42 1913.67 84.4C1913.67 74.2 1915.71 65.26 1919.79 57.58C1923.87 49.9 1929.54 43.9 1936.8 39.58C1944.06 35.26 1952.46 33.1 1962 33.1C1971.78 33.1 1980.3 35.29 1987.56 39.67C1994.82 44.05 2000.46 50.11 2004.48 57.85C2008.5 65.53 2010.51 74.38 2010.51 84.4C2010.51 94.48 2008.47 103.39 2004.39 111.13C2000.37 118.81 1994.73 124.84 1987.47 129.22C1980.21 133.54 1971.72 135.7 1962 135.7ZM1962 115.36C1970.64 115.36 1977.06 112.48 1981.26 106.72C1985.46 100.96 1987.56 93.52 1987.56 84.4C1987.56 74.98 1985.43 67.48 1981.17 61.9C1976.91 56.26 1970.52 53.44 1962 53.44C1956.18 53.44 1951.38 54.76 1947.6 57.4C1943.88 59.98 1941.12 63.61 1939.32 68.29C1937.52 72.91 1936.62 78.28 1936.62 84.4C1936.62 93.82 1938.75 101.35 1943.01 106.99C1947.33 112.57 1953.66 115.36 1962 115.36ZM2065.59 135.7C2053.59 135.7 2043.84 133 2036.34 127.6C2028.84 122.2 2024.28 114.61 2022.66 104.83L2044.8 101.41C2045.94 106.21 2048.46 109.99 2052.36 112.75C2056.26 115.51 2061.18 116.89 2067.12 116.89C2072.34 116.89 2076.36 115.87 2079.18 113.83C2082.06 111.73 2083.5 108.88 2083.5 105.28C2083.5 103.06 2082.96 101.29 2081.88 99.97C2080.86 98.59 2078.58 97.27 2075.04 96.01C2071.5 94.75 2066.07 93.16 2058.75 91.24C2050.59 89.08 2044.11 86.77 2039.31 84.31C2034.51 81.79 2031.06 78.82 2028.96 75.4C2026.86 71.98 2025.81 67.84 2025.81 62.98C2025.81 56.92 2027.4 51.64 2030.58 47.14C2033.76 42.64 2038.2 39.19 2043.9 36.79C2049.6 34.33 2056.32 33.1 2064.06 33.1C2071.62 33.1 2078.31 34.27 2084.13 36.61C2090.01 38.95 2094.75 42.28 2098.35 46.6C2101.95 50.92 2104.17 55.99 2105.01 61.81L2082.87 65.77C2082.33 61.63 2080.44 58.36 2077.2 55.96C2074.02 53.56 2069.76 52.21 2064.42 51.91C2059.32 51.61 2055.21 52.39 2052.09 54.25C2048.97 56.05 2047.41 58.6 2047.41 61.9C2047.41 63.76 2048.04 65.35 2049.3 66.67C2050.56 67.99 2053.08 69.31 2056.86 70.63C2060.7 71.95 2066.4 73.57 2073.96 75.49C2081.7 77.47 2087.88 79.75 2092.5 82.33C2097.18 84.85 2100.54 87.88 2102.58 91.42C2104.68 94.96 2105.73 99.25 2105.73 104.29C2105.73 114.07 2102.16 121.75 2095.02 127.33C2087.94 132.91 2078.13 135.7 2065.59 135.7Z" fill="#F26321"/>
<path d="M171.342 3.39999H193.122L158.562 133H136.782L171.342 3.39999Z" fill="white"/>
</svg>
