<?xml version="1.0" encoding="UTF-8" standalone="no"?>
<svg width="270.933mm" height="70.3792mm"
 xmlns="http://www.w3.org/2000/svg" xmlns:xlink="http://www.w3.org/1999/xlink"  version="1.2" baseProfile="tiny">
<desc>Created by EvoPdf</desc>
<defs>
</defs>
<g fill="none" stroke="black" stroke-width="1" fill-rule="evenodd" stroke-linecap="square" stroke-linejoin="bevel" >

<g fill="#000000" fill-opacity="1" stroke="#000000" stroke-opacity="1" stroke-width="1" stroke-linecap="square" stroke-linejoin="miter" stroke-miterlimit="2" transform="matrix(1,0,0,1,0,0)"
>
</g>

<g fill="#000000" fill-opacity="1" stroke="#000000" stroke-opacity="1" stroke-width="1" stroke-linecap="square" stroke-linejoin="miter" stroke-miterlimit="2" transform="matrix(1,0,0,1,0,0)"
>
</g>

<g fill="#000000" fill-opacity="1" stroke="#000000" stroke-opacity="1" stroke-width="1" stroke-linecap="square" stroke-linejoin="miter" stroke-miterlimit="2" transform="matrix(1,0,0,1,0,0)"
>
</g>

<g fill="#000000" fill-opacity="1" stroke="#000000" stroke-opacity="1" stroke-width="1" stroke-linecap="square" stroke-linejoin="miter" stroke-miterlimit="2" transform="matrix(1,0,0,1,0,0)"
>
</g>

<g fill="#000000" fill-opacity="1" stroke="#000000" stroke-opacity="1" stroke-width="1" stroke-linecap="square" stroke-linejoin="miter" stroke-miterlimit="2" transform="matrix(0.488281,0,0,0.488281,8,8)"
>
</g>

<g fill="#000000" fill-opacity="1" stroke="#000000" stroke-opacity="1" stroke-width="1" stroke-linecap="square" stroke-linejoin="miter" stroke-miterlimit="2" transform="matrix(0.488281,0,0,0.488281,8,8)"
>
</g>

<g fill="#000000" fill-opacity="1" stroke="#000000" stroke-opacity="1" stroke-width="1" stroke-linecap="square" stroke-linejoin="miter" stroke-miterlimit="2" transform="matrix(0.445815,0,0,0.445815,8,18.8713)"
>
</g>

<g fill="#ffffff" fill-opacity="1" stroke="none" transform="matrix(0.445815,0,0,0.445815,8,18.8713)"
>
<path vector-effect="none" fill-rule="evenodd" d="M0,0 L560.77,0 L560.77,512 L0,512 L0,0"/>
</g>

<g fill="#000000" fill-opacity="1" stroke="#000000" stroke-opacity="1" stroke-width="1" stroke-linecap="square" stroke-linejoin="miter" stroke-miterlimit="2" transform="matrix(0.445815,0,0,0.445815,8,18.8713)"
>
</g>

<g fill="#ffab4a" fill-opacity="1" stroke="none" transform="matrix(1.06442,0,0,1.06442,18.8888,75.9897)"
>
<path vector-effect="none" fill-rule="nonzero" d="M47.69,90.25 C47.621,90.25 47.55,90.244 47.48,90.23 L12.758,83.791 C12.134,83.676 11.722,83.076 11.837,82.451 C11.953,81.828 12.554,81.414 13.177,81.531 L46.422,87.695 L44.602,65.388 L25.682,12.298 C25.468,11.7 25.781,11.042 26.379,10.829 C26.977,10.616 27.634,10.928 27.848,11.526 L46.819,64.76 C46.852,64.854 46.874,64.951 46.881,65.053 L48.836,89.006 C48.864,89.363 48.726,89.713 48.46,89.953 C48.248,90.145 47.973,90.25 47.69,90.25 "/>
</g>

<g fill="#000000" fill-opacity="1" stroke="#000000" stroke-opacity="1" stroke-width="1" stroke-linecap="square" stroke-linejoin="miter" stroke-miterlimit="2" transform="matrix(0.445815,0,0,0.445815,8,18.8713)"
>
</g>

<g fill="#ff6b4a" fill-opacity="1" stroke="none" transform="matrix(1.06442,0,0,1.06442,18.652,76.2068)"
>
<path vector-effect="none" fill-rule="nonzero" d="M47.689,90.25 C47.506,90.25 47.322,90.207 47.149,90.115 C46.588,89.814 46.377,89.119 46.675,88.558 L80.478,25.167 C80.777,24.607 81.473,24.395 82.034,24.693 C82.594,24.992 82.805,25.689 82.508,26.249 L48.705,89.641 C48.498,90.029 48.101,90.25 47.689,90.25 "/>
</g>

<g fill="#000000" fill-opacity="1" stroke="#000000" stroke-opacity="1" stroke-width="1" stroke-linecap="square" stroke-linejoin="miter" stroke-miterlimit="2" transform="matrix(0.445815,0,0,0.445815,8,18.8713)"
>
</g>

<g fill="#ff4a4a" fill-opacity="1" stroke="none" transform="matrix(1.06442,0,0,1.06442,18.6488,76.3003)"
>
<path vector-effect="none" fill-rule="nonzero" d="M45.737,66.295 C45.66,66.295 45.582,66.287 45.504,66.272 C45.503,66.272 45.502,66.272 45.502,66.272 C45.485,66.268 45.47,66.264 45.455,66.26 C45.452,66.26 45.451,66.26 45.449,66.258 C45.236,66.203 45.053,66.094 44.91,65.946 L10.716,31.75 L6.281,55.965 C6.167,56.59 5.567,57.002 4.943,56.889 C4.318,56.774 3.905,56.174 4.019,55.551 L8.848,29.181 C8.924,28.761 9.229,28.418 9.636,28.29 C10.044,28.163 10.49,28.272 10.791,28.575 L45.083,62.867 L54.979,20.211 L26.484,13.027 C25.958,12.895 25.596,12.413 25.616,11.871 C25.636,11.329 26.032,10.874 26.565,10.78 L59.218,5.031 C59.598,4.964 59.987,5.093 60.251,5.372 C60.517,5.652 60.624,6.047 60.537,6.423 L57.727,18.532 L81.773,24.594 C82.164,24.693 82.475,24.99 82.592,25.376 C82.708,25.762 82.614,26.182 82.343,26.481 L46.603,65.9 C46.538,65.976 46.462,66.043 46.379,66.097 C46.379,66.099 46.378,66.099 46.378,66.099 C46.377,66.099 46.377,66.099 46.376,66.099 L46.375,66.101 C46.374,66.101 46.374,66.101 46.374,66.101 C46.357,66.113 46.342,66.122 46.325,66.132 C46.324,66.132 46.324,66.132 46.324,66.132 C46.323,66.132 46.323,66.132 46.322,66.134 L46.321,66.134 C46.32,66.134 46.32,66.134 46.32,66.134 C46.146,66.238 45.945,66.295 45.737,66.295 M57.209,20.773 L47.855,61.096 L79.354,26.356 L57.209,20.773 M32.262,12.112 L55.499,17.97 L57.905,7.597 L32.262,12.112"/>
</g>

<g fill="#000000" fill-opacity="1" stroke="#000000" stroke-opacity="1" stroke-width="1" stroke-linecap="square" stroke-linejoin="miter" stroke-miterlimit="2" transform="matrix(0.445815,0,0,0.445815,8,18.8713)"
>
</g>

<g fill="#ff954a" fill-opacity="1" stroke="none" transform="matrix(1.06442,0,0,1.06442,18.6944,76.2546)"
>
<path vector-effect="none" fill-rule="nonzero" d="M12.968,83.811 C12.823,83.811 12.681,83.784 12.549,83.733 C12.448,83.692 12.352,83.639 12.264,83.571 C12.114,83.454 11.991,83.298 11.911,83.114 C11.891,83.067 11.874,83.018 11.861,82.971 L4.046,56.078 C3.91,55.607 4.085,55.103 4.484,54.82 L55.687,18.434 C56.142,18.111 56.762,18.161 57.16,18.551 C57.558,18.941 57.617,19.561 57.303,20.021 L16.579,79.428 L45.194,64.131 C45.36,64.043 45.547,63.996 45.736,63.996 L92.342,63.996 L80.492,26.358 L58.655,7.024 C58.18,6.603 58.135,5.877 58.557,5.401 C58.977,4.926 59.704,4.881 60.179,5.302 L82.254,24.847 C82.41,24.986 82.526,25.164 82.589,25.363 L95.006,64.8 C95.115,65.148 95.053,65.529 94.836,65.823 C94.619,66.12 94.275,66.294 93.909,66.294 L46.024,66.294 L13.532,83.664 C13.481,83.691 13.428,83.717 13.373,83.738 C13.304,83.763 13.232,83.783 13.161,83.795 C13.097,83.807 13.032,83.811 12.968,83.811 M6.482,56.221 L13.394,80.006 L51.75,24.053 L6.482,56.221"/>
</g>

<g fill="#000000" fill-opacity="1" stroke="#000000" stroke-opacity="1" stroke-width="1" stroke-linecap="square" stroke-linejoin="miter" stroke-miterlimit="2" transform="matrix(0.445815,0,0,0.445815,8,18.8713)"
>
</g>

<g fill="#ff4a4a" fill-opacity="1" stroke="none" transform="matrix(1.06442,0,0,1.06442,19.0884,75.9748)"
>
<path vector-effect="none" fill-rule="nonzero" d="M60.439,19.677 C60.439,22.3837 58.2447,24.578 55.538,24.578 C52.8312,24.578 50.637,22.3837 50.637,19.677 C50.637,16.9703 52.8312,14.776 55.538,14.776 C58.2447,14.776 60.439,16.9703 60.439,19.677 "/>
</g>

<g fill="#000000" fill-opacity="1" stroke="#000000" stroke-opacity="1" stroke-width="1" stroke-linecap="square" stroke-linejoin="miter" stroke-miterlimit="2" transform="matrix(0.445815,0,0,0.445815,8,18.8713)"
>
</g>

<g fill="#ff6b4a" fill-opacity="1" stroke="none" transform="matrix(1.06442,0,0,1.06442,19.1579,76.0598)"
>
<path vector-effect="none" fill-rule="nonzero" d="M28.372,42.596 C28.372,45.3022 26.1782,47.496 23.472,47.496 C20.7658,47.496 18.572,45.3022 18.572,42.596 C18.572,39.8898 20.7658,37.696 23.472,37.696 C26.1782,37.696 28.372,39.8898 28.372,42.596 "/>
</g>

<g fill="#000000" fill-opacity="1" stroke="#000000" stroke-opacity="1" stroke-width="1" stroke-linecap="square" stroke-linejoin="miter" stroke-miterlimit="2" transform="matrix(0.445815,0,0,0.445815,8,18.8713)"
>
</g>

<g fill="#ff954a" fill-opacity="1" stroke="none" transform="matrix(1.06442,0,0,1.06442,18.8779,76.5406)"
>
<path vector-effect="none" fill-rule="nonzero" d="M50.637,65.145 C50.637,67.8517 48.4427,70.046 45.736,70.046 C43.0293,70.046 40.835,67.8517 40.835,65.145 C40.835,62.4382 43.0293,60.244 45.736,60.244 C48.4427,60.244 50.637,62.4382 50.637,65.145 "/>
</g>

<g fill="#000000" fill-opacity="1" stroke="#000000" stroke-opacity="1" stroke-width="1" stroke-linecap="square" stroke-linejoin="miter" stroke-miterlimit="2" transform="matrix(0.445815,0,0,0.445815,8,18.8713)"
>
</g>

<g fill="#ffab4a" fill-opacity="1" stroke="none" transform="matrix(1.06442,0,0,1.06442,18.6313,75.9901)"
>
<path vector-effect="none" fill-rule="nonzero" d="M17.869,82.662 C17.869,85.3687 15.6747,87.563 12.968,87.563 C10.2613,87.563 8.067,85.3687 8.067,82.662 C8.067,79.9553 10.2613,77.761 12.968,77.761 C15.6747,77.761 17.869,79.9553 17.869,82.662 "/>
</g>

<g fill="#000000" fill-opacity="1" stroke="#000000" stroke-opacity="1" stroke-width="1" stroke-linecap="square" stroke-linejoin="miter" stroke-miterlimit="2" transform="matrix(0.445815,0,0,0.445815,8,18.8713)"
>
</g>

<g fill="#ffab4a" fill-opacity="1" stroke="none" transform="matrix(1.06442,0,0,1.06442,18.8472,76.1079)"
>
<path vector-effect="none" fill-rule="nonzero" d="M86.394,25.552 C86.394,28.2587 84.1997,30.453 81.493,30.453 C78.7862,30.453 76.592,28.2587 76.592,25.552 C76.592,22.8453 78.7862,20.651 81.493,20.651 C84.1997,20.651 86.394,22.8453 86.394,25.552 "/>
</g>

<g fill="#000000" fill-opacity="1" stroke="#000000" stroke-opacity="1" stroke-width="1" stroke-linecap="square" stroke-linejoin="miter" stroke-miterlimit="2" transform="matrix(0.445815,0,0,0.445815,8,18.8713)"
>
</g>

<g fill="#ff6b4a" fill-opacity="1" stroke="none" transform="matrix(1.06442,0,0,1.06442,18.9258,76.5873)"
>
<path vector-effect="none" fill-rule="nonzero" d="M52.59,89.1 C52.59,91.8062 50.3962,94 47.69,94 C44.9838,94 42.79,91.8062 42.79,89.1 C42.79,86.3938 44.9838,84.2 47.69,84.2 C50.3962,84.2 52.59,86.3938 52.59,89.1 "/>
</g>

<g fill="#000000" fill-opacity="1" stroke="#000000" stroke-opacity="1" stroke-width="1" stroke-linecap="square" stroke-linejoin="miter" stroke-miterlimit="2" transform="matrix(0.445815,0,0,0.445815,8,18.8713)"
>
</g>

<g fill="#000000" fill-opacity="1" stroke="#000000" stroke-opacity="1" stroke-width="1" stroke-linecap="square" stroke-linejoin="miter" stroke-miterlimit="2" transform="matrix(0.445815,0,0,0.445815,8,18.8713)"
>
</g>

<g fill="#000000" fill-opacity="1" stroke="none" transform="matrix(0.287454,0,0,0.287454,73.0521,147.873)"
>
<path vector-effect="none" fill-rule="nonzero" d="M54.8,0 L30.4,0 C22.0667,0 15.8833,-1.66667 11.85,-5 C7.81667,-8.33333 5.8,-13.4667 5.8,-20.4 L5.8,-51.5 C5.8,-58.4333 7.81667,-63.5833 11.85,-66.95 C15.8833,-70.3167 22.0667,-72 30.4,-72 L54.8,-72 C56.0667,-72 56.9833,-71.7167 57.55,-71.15 C58.1167,-70.5833 58.4,-69.6667 58.4,-68.4 L58.4,-56.3 C58.4,-55.0333 58.1167,-54.1167 57.55,-53.55 C56.9833,-52.9833 56.0667,-52.7 54.8,-52.7 L34.7,-52.7 C32.6333,-52.7 31.1,-52.2833 30.1,-51.45 C29.1,-50.6167 28.6,-49.3667 28.6,-47.7 L28.6,-23.9 C28.6,-22.2333 29.1,-21.0167 30.1,-20.25 C31.1,-19.4833 32.6333,-19.1 34.7,-19.1 L54.8,-19.1 C56.0667,-19.1 56.9833,-18.8167 57.55,-18.25 C58.1167,-17.6833 58.4,-16.7667 58.4,-15.5 L58.4,-3.6 C58.4,-2.33333 58.1167,-1.41667 57.55,-0.85 C56.9833,-0.283333 56.0667,0 54.8,0 M130.2,-53 L130.2,-18.9 C130.2,-15.8333 129.75,-13.05 128.85,-10.55 C127.95,-8.05 126.35,-5.91667 124.05,-4.15 C121.75,-2.38333 118.583,-1 114.55,0 C110.517,1 105.4,1.5 99.2,1.5 C93,1.5 87.8667,1 83.8,0 C79.7333,-1 76.55,-2.38333 74.25,-4.15 C71.95,-5.91667 70.35,-8.05 69.45,-10.55 C68.55,-13.05 68.1,-15.8333 68.1,-18.9 L68.1,-53 C68.1,-56.0667 68.55,-58.85 69.45,-61.35 C70.35,-63.85 71.95,-66 74.25,-67.8 C76.55,-69.6 79.7333,-71 83.8,-72 C87.8667,-73 93,-73.5 99.2,-73.5 C105.4,-73.5 110.517,-73 114.55,-72 C118.583,-71 121.75,-69.6 124.05,-67.8 C126.35,-66 127.95,-63.85 128.85,-61.35 C129.75,-58.85 130.2,-56.0667 130.2,-53 M90.8,-49.4 L90.8,-22.5 C90.8,-21.1667 91.3,-20.05 92.3,-19.15 C93.3,-18.25 95.6,-17.8 99.2,-17.8 C102.8,-17.8 105.1,-18.25 106.1,-19.15 C107.1,-20.05 107.6,-21.1667 107.6,-22.5 L107.6,-49.4 C107.6,-50.6667 107.1,-51.75 106.1,-52.65 C105.1,-53.55 102.8,-54 99.2,-54 C95.6,-54 93.3,-53.55 92.3,-52.65 C91.3,-51.75 90.8,-50.6667 90.8,-49.4 M180.2,0 L146.5,0 C145.233,0 144.317,-0.283333 143.75,-0.85 C143.183,-1.41667 142.9,-2.33333 142.9,-3.6 L142.9,-68.4 C142.9,-69.6667 143.183,-70.5833 143.75,-71.15 C144.317,-71.7167 145.233,-72 146.5,-72 L180.2,-72 C188.533,-72 194.717,-70.3333 198.75,-67 C202.783,-63.6667 204.8,-58.5333 204.8,-51.6 L204.8,-20.4 C204.8,-13.4667 202.783,-8.33333 198.75,-5 C194.717,-1.66667 188.533,0 180.2,0 M177.5,-52.9 L165.6,-52.9 L165.6,-18.9 L177.5,-18.9 C179.1,-18.9 180.283,-19.3 181.05,-20.1 C181.817,-20.9 182.2,-22.1333 182.2,-23.8 L182.2,-48.1 C182.2,-49.7667 181.817,-50.9833 181.05,-51.75 C180.283,-52.5167 179.1,-52.9 177.5,-52.9 M267.5,0 L221.1,0 C219.833,0 218.917,-0.283333 218.35,-0.85 C217.783,-1.41667 217.5,-2.33333 217.5,-3.6 L217.5,-68.4 C217.5,-69.6667 217.783,-70.5833 218.35,-71.15 C218.917,-71.7167 219.833,-72 221.1,-72 L267.5,-72 C268.767,-72 269.683,-71.7167 270.25,-71.15 C270.817,-70.5833 271.1,-69.6667 271.1,-68.4 L271.1,-56.7 C271.1,-55.4333 270.817,-54.5167 270.25,-53.95 C269.683,-53.3833 268.767,-53.1 267.5,-53.1 L239.9,-53.1 L239.9,-45.4 L259.4,-45.4 C260.667,-45.4 261.583,-45.1167 262.15,-44.55 C262.717,-43.9833 263,-43.0667 263,-41.8 L263,-31.1 C263,-29.8333 262.717,-28.9167 262.15,-28.35 C261.583,-27.7833 260.667,-27.5 259.4,-27.5 L239.9,-27.5 L239.9,-18.9 L267.5,-18.9 C268.767,-18.9 269.683,-18.6167 270.25,-18.05 C270.817,-17.4833 271.1,-16.5667 271.1,-15.3 L271.1,-3.6 C271.1,-2.33333 270.817,-1.41667 270.25,-0.85 C269.683,-0.283333 268.767,0 267.5,0 M324.9,0 L286.5,0 C285.233,0 284.317,-0.283333 283.75,-0.85 C283.183,-1.41667 282.9,-2.33333 282.9,-3.6 L282.9,-68.4 C282.9,-69.6667 283.183,-70.5833 283.75,-71.15 C284.317,-71.7167 285.233,-72 286.5,-72 L318.4,-72 C324.933,-72 329.767,-70.75 332.9,-68.25 C336.033,-65.75 337.6,-61.9 337.6,-56.7 L337.6,-51.9 C337.6,-49.1 337.117,-46.8167 336.15,-45.05 C335.183,-43.2833 333.7,-41.9667 331.7,-41.1 C335.967,-40.7 339.133,-39.2333 341.2,-36.7 C343.267,-34.1667 344.3,-30.4667 344.3,-25.6 L344.3,-16.4 C344.3,-10.8 342.717,-6.66667 339.55,-4 C336.383,-1.33333 331.5,0 324.9,0 M313.9,-55 L305.4,-55 L305.4,-44.2 L313.9,-44.2 C315.167,-44.2 316.117,-44.5333 316.75,-45.2 C317.383,-45.8667 317.7,-46.8667 317.7,-48.2 L317.7,-51 C317.7,-52.3333 317.383,-53.3333 316.75,-54 C316.117,-54.6667 315.167,-55 313.9,-55 M318.4,-28.8 L305.4,-28.8 L305.4,-17 L318.4,-17 C319.667,-17 320.617,-17.3333 321.25,-18 C321.883,-18.6667 322.2,-19.6667 322.2,-21 L322.2,-24.9 C322.2,-26.2333 321.883,-27.2167 321.25,-27.85 C320.617,-28.4833 319.667,-28.8 318.4,-28.8 M409.9,0 L359,0 C357.733,0 356.817,-0.283333 356.25,-0.85 C355.683,-1.41667 355.4,-2.33333 355.4,-3.6 L355.4,-68.4 C355.4,-69.6667 355.683,-70.5833 356.25,-71.15 C356.817,-71.7167 357.733,-72 359,-72 L374.5,-72 C375.767,-72 376.683,-71.7167 377.25,-71.15 C377.817,-70.5833 378.1,-69.6667 378.1,-68.4 L378.1,-18.9 L391.8,-18.9 L391.8,-35.1 C391.8,-36.3667 392.083,-37.2833 392.65,-37.85 C393.217,-38.4167 394.133,-38.7 395.4,-38.7 L409.9,-38.7 C411.167,-38.7 412.083,-38.4167 412.65,-37.85 C413.217,-37.2833 413.5,-36.3667 413.5,-35.1 L413.5,-3.6 C413.5,-2.33333 413.217,-1.41667 412.65,-0.85 C412.083,-0.283333 411.167,0 409.9,0 M485.9,-53 L485.9,-18.9 C485.9,-15.8333 485.45,-13.05 484.55,-10.55 C483.65,-8.05 482.05,-5.91667 479.75,-4.15 C477.45,-2.38333 474.283,-1 470.25,0 C466.217,1 461.1,1.5 454.9,1.5 C448.7,1.5 443.567,1 439.5,0 C435.433,-1 432.25,-2.38333 429.95,-4.15 C427.65,-5.91667 426.05,-8.05 425.15,-10.55 C424.25,-13.05 423.8,-15.8333 423.8,-18.9 L423.8,-53 C423.8,-56.0667 424.25,-58.85 425.15,-61.35 C426.05,-63.85 427.65,-66 429.95,-67.8 C432.25,-69.6 435.433,-71 439.5,-72 C443.567,-73 448.7,-73.5 454.9,-73.5 C461.1,-73.5 466.217,-73 470.25,-72 C474.283,-71 477.45,-69.6 479.75,-67.8 C482.05,-66 483.65,-63.85 484.55,-61.35 C485.45,-58.85 485.9,-56.0667 485.9,-53 M446.5,-49.4 L446.5,-22.5 C446.5,-21.1667 447,-20.05 448,-19.15 C449,-18.25 451.3,-17.8 454.9,-17.8 C458.5,-17.8 460.8,-18.25 461.8,-19.15 C462.8,-20.05 463.3,-21.1667 463.3,-22.5 L463.3,-49.4 C463.3,-50.6667 462.8,-51.75 461.8,-52.65 C460.8,-53.55 458.5,-54 454.9,-54 C451.3,-54 449,-53.55 448,-52.65 C447,-51.75 446.5,-50.6667 446.5,-49.4 M559.6,-53 L559.6,-18.9 C559.6,-15.8333 559.15,-13.05 558.25,-10.55 C557.35,-8.05 555.75,-5.91667 553.45,-4.15 C551.15,-2.38333 547.983,-1 543.95,0 C539.917,1 534.8,1.5 528.6,1.5 C522.4,1.5 517.267,1 513.2,0 C509.133,-1 505.95,-2.38333 503.65,-4.15 C501.35,-5.91667 499.75,-8.05 498.85,-10.55 C497.95,-13.05 497.5,-15.8333 497.5,-18.9 L497.5,-53 C497.5,-56.0667 497.95,-58.85 498.85,-61.35 C499.75,-63.85 501.35,-66 503.65,-67.8 C505.95,-69.6 509.133,-71 513.2,-72 C517.267,-73 522.4,-73.5 528.6,-73.5 C534.8,-73.5 539.917,-73 543.95,-72 C547.983,-71 551.15,-69.6 553.45,-67.8 C555.75,-66 557.35,-63.85 558.25,-61.35 C559.15,-58.85 559.6,-56.0667 559.6,-53 M520.2,-49.4 L520.2,-22.5 C520.2,-21.1667 520.7,-20.05 521.7,-19.15 C522.7,-18.25 525,-17.8 528.6,-17.8 C532.2,-17.8 534.5,-18.25 535.5,-19.15 C536.5,-20.05 537,-21.1667 537,-22.5 L537,-49.4 C537,-50.6667 536.5,-51.75 535.5,-52.65 C534.5,-53.55 532.2,-54 528.6,-54 C525,-54 522.7,-53.55 521.7,-52.65 C520.7,-51.75 520.2,-50.6667 520.2,-49.4 M590.8,0 L575.9,0 C574.633,0 573.717,-0.283333 573.15,-0.85 C572.583,-1.41667 572.3,-2.33333 572.3,-3.6 L572.3,-68.4 C572.3,-69.6667 572.583,-70.5833 573.15,-71.15 C573.717,-71.7167 574.633,-72 575.9,-72 L592,-72 C593.067,-72 593.95,-71.7667 594.65,-71.3 C595.35,-70.8333 596,-70.0667 596.6,-69 L605.6,-52.7 C605.933,-52.1 606.217,-51.6667 606.45,-51.4 C606.683,-51.1333 607,-51 607.4,-51 L608.3,-51 C608.7,-51 609.017,-51.1333 609.25,-51.4 C609.483,-51.6667 609.767,-52.1 610.1,-52.7 L619,-69 C619.6,-70.0667 620.25,-70.8333 620.95,-71.3 C621.65,-71.7667 622.533,-72 623.6,-72 L639.8,-72 C641.067,-72 641.983,-71.7167 642.55,-71.15 C643.117,-70.5833 643.4,-69.6667 643.4,-68.4 L643.4,-3.6 C643.4,-2.33333 643.117,-1.41667 642.55,-0.85 C641.983,-0.283333 641.067,0 639.8,0 L624.4,0 C623.133,0 622.217,-0.283333 621.65,-0.85 C621.083,-1.41667 620.8,-2.33333 620.8,-3.6 L620.8,-38.8 L614.9,-27.9 C614.3,-26.7667 613.583,-25.95 612.75,-25.45 C611.917,-24.95 610.867,-24.7 609.6,-24.7 L605.6,-24.7 C604.333,-24.7 603.283,-24.95 602.45,-25.45 C601.617,-25.95 600.9,-26.7667 600.3,-27.9 L594.4,-38.8 L594.4,-3.6 C594.4,-2.33333 594.117,-1.41667 593.55,-0.85 C592.983,-0.283333 592.067,0 590.8,0 "/>
</g>

<g fill="#000000" fill-opacity="1" stroke="#000000" stroke-opacity="1" stroke-width="1" stroke-linecap="square" stroke-linejoin="miter" stroke-miterlimit="2" transform="matrix(0.445815,0,0,0.445815,8,18.8713)"
>
</g>

<g fill="#000000" fill-opacity="1" stroke="none" transform="matrix(0.287454,0,0,0.287454,73.259,171.728)"
>
<path vector-effect="none" fill-rule="nonzero" d="M40.3,0 L8.7,0 C7.43333,0 6.51667,-0.283333 5.95,-0.85 C5.38333,-1.41667 5.1,-2.33333 5.1,-3.6 L5.1,-15.3 C5.1,-16.5667 5.38333,-17.4833 5.95,-18.05 C6.51667,-18.6167 7.43333,-18.9 8.7,-18.9 L35.6,-18.9 C36.4667,-18.9 37.1167,-19.1833 37.55,-19.75 C37.9833,-20.3167 38.2,-21 38.2,-21.8 C38.2,-22.9333 37.9833,-23.7667 37.55,-24.3 C37.1167,-24.8333 36.4667,-25.1333 35.6,-25.2 L20.6,-27.3 C15.9333,-27.9667 12.1833,-29.5 9.35,-31.9 C6.51667,-34.3 5.1,-38.3 5.1,-43.9 L5.1,-54.4 C5.1,-60.0667 6.93333,-64.4167 10.6,-67.45 C14.2667,-70.4833 19.3333,-72 25.8,-72 L53.8,-72 C55.0667,-72 55.9833,-71.7167 56.55,-71.15 C57.1167,-70.5833 57.4,-69.6667 57.4,-68.4 L57.4,-56.5 C57.4,-55.2333 57.1167,-54.3167 56.55,-53.75 C55.9833,-53.1833 55.0667,-52.9 53.8,-52.9 L30.5,-52.9 C29.6333,-52.9 28.9667,-52.6167 28.5,-52.05 C28.0333,-51.4833 27.8,-50.7667 27.8,-49.9 C27.8,-49.0333 28.0333,-48.3 28.5,-47.7 C28.9667,-47.1 29.6333,-46.7667 30.5,-46.7 L45.4,-44.7 C50.0667,-44.0333 53.8333,-42.5 56.7,-40.1 C59.5667,-37.7 61,-33.7 61,-28.1 L61,-17.6 C61,-11.9333 59.15,-7.58333 55.45,-4.55 C51.75,-1.51667 46.7,0 40.3,0 M104.9,0 L88.7,0 C87.4333,0 86.5167,-0.283333 85.95,-0.85 C85.3833,-1.41667 85.1,-2.33333 85.1,-3.6 L85.1,-52.7 L70.4,-52.7 C69.1333,-52.7 68.2167,-52.9833 67.65,-53.55 C67.0833,-54.1167 66.8,-55.0333 66.8,-56.3 L66.8,-68.4 C66.8,-69.6667 67.0833,-70.5833 67.65,-71.15 C68.2167,-71.7167 69.1333,-72 70.4,-72 L123.2,-72 C124.467,-72 125.383,-71.7167 125.95,-71.15 C126.517,-70.5833 126.8,-69.6667 126.8,-68.4 L126.8,-56.3 C126.8,-55.0333 126.517,-54.1167 125.95,-53.55 C125.383,-52.9833 124.467,-52.7 123.2,-52.7 L108.5,-52.7 L108.5,-3.6 C108.5,-2.33333 108.217,-1.41667 107.65,-0.85 C107.083,-0.283333 106.167,0 104.9,0 M197.8,-68.4 L197.8,-18.9 C197.8,-15.8333 197.35,-13.05 196.45,-10.55 C195.55,-8.05 193.95,-5.91667 191.65,-4.15 C189.35,-2.38333 186.2,-1 182.2,0 C178.2,1 173.1,1.5 166.9,1.5 C160.7,1.5 155.6,1 151.6,0 C147.6,-1 144.45,-2.38333 142.15,-4.15 C139.85,-5.91667 138.25,-8.05 137.35,-10.55 C136.45,-13.05 136,-15.8333 136,-18.9 L136,-68.4 C136,-69.6667 136.283,-70.5833 136.85,-71.15 C137.417,-71.7167 138.333,-72 139.6,-72 L155.3,-72 C156.567,-72 157.483,-71.7167 158.05,-71.15 C158.617,-70.5833 158.9,-69.6667 158.9,-68.4 L158.9,-22.8 C158.9,-21.4667 159.4,-20.35 160.4,-19.45 C161.4,-18.55 163.633,-18.1 167.1,-18.1 C170.633,-18.1 172.9,-18.55 173.9,-19.45 C174.9,-20.35 175.4,-21.4667 175.4,-22.8 L175.4,-68.4 C175.4,-69.6667 175.683,-70.5833 176.25,-71.15 C176.817,-71.7167 177.733,-72 179,-72 L194.2,-72 C195.467,-72 196.383,-71.7167 196.95,-71.15 C197.517,-70.5833 197.8,-69.6667 197.8,-68.4 M248.4,0 L214.7,0 C213.433,0 212.517,-0.283333 211.95,-0.85 C211.383,-1.41667 211.1,-2.33333 211.1,-3.6 L211.1,-68.4 C211.1,-69.6667 211.383,-70.5833 211.95,-71.15 C212.517,-71.7167 213.433,-72 214.7,-72 L248.4,-72 C256.733,-72 262.917,-70.3333 266.95,-67 C270.983,-63.6667 273,-58.5333 273,-51.6 L273,-20.4 C273,-13.4667 270.983,-8.33333 266.95,-5 C262.917,-1.66667 256.733,0 248.4,0 M245.7,-52.9 L233.8,-52.9 L233.8,-18.9 L245.7,-18.9 C247.3,-18.9 248.483,-19.3 249.25,-20.1 C250.017,-20.9 250.4,-22.1333 250.4,-23.8 L250.4,-48.1 C250.4,-49.7667 250.017,-50.9833 249.25,-51.75 C248.483,-52.5167 247.3,-52.9 245.7,-52.9 M330.3,0 L287.7,0 C286.433,0 285.517,-0.283333 284.95,-0.85 C284.383,-1.41667 284.1,-2.33333 284.1,-3.6 L284.1,-15.5 C284.1,-16.7667 284.383,-17.6833 284.95,-18.25 C285.517,-18.8167 286.433,-19.1 287.7,-19.1 L297.6,-19.1 L297.6,-52.7 L287.7,-52.7 C286.433,-52.7 285.517,-52.9833 284.95,-53.55 C284.383,-54.1167 284.1,-55.0333 284.1,-56.3 L284.1,-68.4 C284.1,-69.6667 284.383,-70.5833 284.95,-71.15 C285.517,-71.7167 286.433,-72 287.7,-72 L330.3,-72 C331.567,-72 332.483,-71.7167 333.05,-71.15 C333.617,-70.5833 333.9,-69.6667 333.9,-68.4 L333.9,-56.3 C333.9,-55.0333 333.617,-54.1167 333.05,-53.55 C332.483,-52.9833 331.567,-52.7 330.3,-52.7 L320.6,-52.7 L320.6,-19.1 L330.3,-19.1 C331.567,-19.1 332.483,-18.8167 333.05,-18.25 C333.617,-17.6833 333.9,-16.7667 333.9,-15.5 L333.9,-3.6 C333.9,-2.33333 333.617,-1.41667 333.05,-0.85 C332.483,-0.283333 331.567,0 330.3,0 M407.2,-53 L407.2,-18.9 C407.2,-15.8333 406.75,-13.05 405.85,-10.55 C404.95,-8.05 403.35,-5.91667 401.05,-4.15 C398.75,-2.38333 395.583,-1 391.55,0 C387.517,1 382.4,1.5 376.2,1.5 C370,1.5 364.867,1 360.8,0 C356.733,-1 353.55,-2.38333 351.25,-4.15 C348.95,-5.91667 347.35,-8.05 346.45,-10.55 C345.55,-13.05 345.1,-15.8333 345.1,-18.9 L345.1,-53 C345.1,-56.0667 345.55,-58.85 346.45,-61.35 C347.35,-63.85 348.95,-66 351.25,-67.8 C353.55,-69.6 356.733,-71 360.8,-72 C364.867,-73 370,-73.5 376.2,-73.5 C382.4,-73.5 387.517,-73 391.55,-72 C395.583,-71 398.75,-69.6 401.05,-67.8 C403.35,-66 404.95,-63.85 405.85,-61.35 C406.75,-58.85 407.2,-56.0667 407.2,-53 M367.8,-49.4 L367.8,-22.5 C367.8,-21.1667 368.3,-20.05 369.3,-19.15 C370.3,-18.25 372.6,-17.8 376.2,-17.8 C379.8,-17.8 382.1,-18.25 383.1,-19.15 C384.1,-20.05 384.6,-21.1667 384.6,-22.5 L384.6,-49.4 C384.6,-50.6667 384.1,-51.75 383.1,-52.65 C382.1,-53.55 379.8,-54 376.2,-54 C372.6,-54 370.3,-53.55 369.3,-52.65 C368.3,-51.75 367.8,-50.6667 367.8,-49.4 M453.3,0 L421.7,0 C420.433,0 419.517,-0.283333 418.95,-0.85 C418.383,-1.41667 418.1,-2.33333 418.1,-3.6 L418.1,-15.3 C418.1,-16.5667 418.383,-17.4833 418.95,-18.05 C419.517,-18.6167 420.433,-18.9 421.7,-18.9 L448.6,-18.9 C449.467,-18.9 450.117,-19.1833 450.55,-19.75 C450.983,-20.3167 451.2,-21 451.2,-21.8 C451.2,-22.9333 450.983,-23.7667 450.55,-24.3 C450.117,-24.8333 449.467,-25.1333 448.6,-25.2 L433.6,-27.3 C428.933,-27.9667 425.183,-29.5 422.35,-31.9 C419.517,-34.3 418.1,-38.3 418.1,-43.9 L418.1,-54.4 C418.1,-60.0667 419.933,-64.4167 423.6,-67.45 C427.267,-70.4833 432.333,-72 438.8,-72 L466.8,-72 C468.067,-72 468.983,-71.7167 469.55,-71.15 C470.117,-70.5833 470.4,-69.6667 470.4,-68.4 L470.4,-56.5 C470.4,-55.2333 470.117,-54.3167 469.55,-53.75 C468.983,-53.1833 468.067,-52.9 466.8,-52.9 L443.5,-52.9 C442.633,-52.9 441.967,-52.6167 441.5,-52.05 C441.033,-51.4833 440.8,-50.7667 440.8,-49.9 C440.8,-49.0333 441.033,-48.3 441.5,-47.7 C441.967,-47.1 442.633,-46.7667 443.5,-46.7 L458.4,-44.7 C463.067,-44.0333 466.833,-42.5 469.7,-40.1 C472.567,-37.7 474,-33.7 474,-28.1 L474,-17.6 C474,-11.9333 472.15,-7.58333 468.45,-4.55 C464.75,-1.51667 459.7,0 453.3,0 "/>
</g>

<g fill="#000000" fill-opacity="1" stroke="#000000" stroke-opacity="1" stroke-width="1" stroke-linecap="square" stroke-linejoin="miter" stroke-miterlimit="2" transform="matrix(0.445815,0,0,0.445815,8,18.8713)"
>
</g>

<g fill="#000000" fill-opacity="1" stroke="#000000" stroke-opacity="1" stroke-width="1" stroke-linecap="square" stroke-linejoin="miter" stroke-miterlimit="2" transform="matrix(0.488281,0,0,0.488281,8,8)"
>
</g>

<g fill="#000000" fill-opacity="1" stroke="#000000" stroke-opacity="1" stroke-width="1" stroke-linecap="square" stroke-linejoin="miter" stroke-miterlimit="2" transform="matrix(0.488281,0,0,0.488281,8,8)"
>
</g>

<g fill="#000000" fill-opacity="1" stroke="#000000" stroke-opacity="1" stroke-width="1" stroke-linecap="square" stroke-linejoin="miter" stroke-miterlimit="2" transform="matrix(1,0,0,1,0,0)"
>
</g>

<g fill="#000000" fill-opacity="1" stroke="#000000" stroke-opacity="1" stroke-width="1" stroke-linecap="square" stroke-linejoin="miter" stroke-miterlimit="2" transform="matrix(1,0,0,1,0,0)"
>
</g>

<g fill="#000000" fill-opacity="1" stroke="#000000" stroke-opacity="1" stroke-width="1" stroke-linecap="square" stroke-linejoin="miter" stroke-miterlimit="2" transform="matrix(1,0,0,1,0,0)"
>
</g>

<g fill="#000000" fill-opacity="1" stroke="#000000" stroke-opacity="1" stroke-width="1" stroke-linecap="square" stroke-linejoin="miter" stroke-miterlimit="2" transform="matrix(1,0,0,1,0,0)"
>
</g>

<g fill="#000000" fill-opacity="1" stroke="#000000" stroke-opacity="1" stroke-width="1" stroke-linecap="square" stroke-linejoin="miter" stroke-miterlimit="2" transform="matrix(0.488281,0,0,0.488281,8,8)"
>
</g>

<g fill="#000000" fill-opacity="1" stroke="#000000" stroke-opacity="1" stroke-width="1" stroke-linecap="square" stroke-linejoin="miter" stroke-miterlimit="2" transform="matrix(0.445815,0,0,0.445815,8,18.8713)"
>
</g>

<g fill="#000000" fill-opacity="1" stroke="#000000" stroke-opacity="1" stroke-width="1" stroke-linecap="square" stroke-linejoin="miter" stroke-miterlimit="2" transform="matrix(0.445815,0,0,0.445815,8,18.8713)"
>
</g>

<g fill="#000000" fill-opacity="1" stroke="#000000" stroke-opacity="1" stroke-width="1" stroke-linecap="square" stroke-linejoin="miter" stroke-miterlimit="2" transform="matrix(0.488281,0,0,0.488281,8,8)"
>
</g>

<g fill="#000000" fill-opacity="1" stroke="#000000" stroke-opacity="1" stroke-width="1" stroke-linecap="square" stroke-linejoin="miter" stroke-miterlimit="2" transform="matrix(0.488281,0,0,0.488281,8,8)"
>
</g>

<g fill="#000000" fill-opacity="1" stroke="#000000" stroke-opacity="1" stroke-width="1" stroke-linecap="square" stroke-linejoin="miter" stroke-miterlimit="2" transform="matrix(1,0,0,1,0,0)"
>
</g>

<g fill="#000000" fill-opacity="1" stroke="#000000" stroke-opacity="1" stroke-width="1" stroke-linecap="square" stroke-linejoin="miter" stroke-miterlimit="2" transform="matrix(1,0,0,1,0,0)"
>
</g>

<g fill="#000000" fill-opacity="1" stroke="#000000" stroke-opacity="1" stroke-width="1" stroke-linecap="square" stroke-linejoin="miter" stroke-miterlimit="2" transform="matrix(1,0,0,1,0,0)"
>
</g>

<g fill="#000000" fill-opacity="1" stroke="#000000" stroke-opacity="1" stroke-width="1" stroke-linecap="square" stroke-linejoin="miter" stroke-miterlimit="2" transform="matrix(1,0,0,1,0,0)"
>
</g>

<g fill="#000000" fill-opacity="1" stroke="#000000" stroke-opacity="1" stroke-width="1" stroke-linecap="square" stroke-linejoin="miter" stroke-miterlimit="2" transform="matrix(1,0,0,1,0,0)"
>
</g>

<g fill="#000000" fill-opacity="1" stroke="#000000" stroke-opacity="1" stroke-width="1" stroke-linecap="square" stroke-linejoin="miter" stroke-miterlimit="2" transform="matrix(1,0,0,1,0,0)"
>
</g>
</g>
</svg>
