<svg width="652" height="88" viewBox="0 0 652 88" fill="none" xmlns="http://www.w3.org/2000/svg">
<path fill-rule="evenodd" clip-rule="evenodd" d="M15.483 40.9084L83.6364 9.79486L89.5302 23.1097L36.9225 47.1263L89.5799 69.597L84.0113 83.0554L14.9097 53.5674L14.9231 53.5351L0 47.481L15.483 40.9084Z" fill="url(#paint0_linear_18_61)"/>
<path fill-rule="evenodd" clip-rule="evenodd" d="M225.163 50.9488L157.107 82.2806L151.171 68.9848L203.704 44.7995L150.977 22.4979L156.504 9.02173L225.697 38.2878L225.684 38.3202L240.625 44.3263L225.163 50.9488Z" fill="url(#paint1_linear_18_61)"/>
<path d="M122.23 51.9805C122.23 54.8125 121.986 57.6445 121.498 60.4766C121.042 63.276 120.082 65.929 118.617 68.4355C118.161 69.1842 117.641 69.9167 117.055 70.6328C116.469 71.3164 115.818 71.9349 115.102 72.4883C114.418 73.0742 113.653 73.5299 112.807 73.8555C111.993 74.2135 111.13 74.3926 110.219 74.3926C108.786 74.3926 107.533 74.0508 106.459 73.3672C105.417 72.7161 104.506 71.8535 103.725 70.7793C102.976 69.6725 102.341 68.4355 101.82 67.0684C101.332 65.6686 100.941 64.2526 100.648 62.8203C100.388 61.3555 100.193 59.9395 100.062 58.5723C99.9648 57.2051 99.916 56.0007 99.916 54.959C99.916 53.7871 99.9648 52.5013 100.062 51.1016C100.16 49.7018 100.323 48.2695 100.551 46.8047C100.811 45.3398 101.137 43.8913 101.527 42.459C101.951 41.0267 102.488 39.6921 103.139 38.4551C103.79 37.1855 104.571 36.0625 105.482 35.0859C106.394 34.0768 107.452 33.2793 108.656 32.6934V32.7422C109.698 32.1888 110.74 31.9121 111.781 31.9121C112.432 31.9121 112.937 32.0586 113.295 32.3516C113.653 32.612 113.816 33.0677 113.783 33.7188C115.574 34.0443 117.022 34.9069 118.129 36.3066C119.236 37.7064 120.082 39.334 120.668 41.1895C121.286 43.0449 121.693 44.9492 121.889 46.9023C122.117 48.8555 122.23 50.5482 122.23 51.9805ZM111.195 39.7734C110.642 39.7734 110.121 39.5618 109.633 39.1387C109.014 40.0827 108.493 41.1732 108.07 42.4102C107.647 43.6146 107.305 44.8678 107.045 46.1699C106.817 47.4395 106.654 48.7253 106.557 50.0273C106.459 51.3294 106.41 52.5501 106.41 53.6895C106.41 54.6335 106.459 55.8542 106.557 57.3516C106.654 58.8164 106.833 60.2975 107.094 61.7949C107.387 63.2923 107.777 64.6921 108.266 65.9941C108.786 67.2962 109.454 68.2565 110.268 68.875C111.277 68.2891 112.107 67.3613 112.758 66.0918C113.441 64.7897 113.979 63.3737 114.369 61.8438C114.76 60.3138 115.02 58.7676 115.15 57.2051C115.313 55.6426 115.395 54.3079 115.395 53.2012C115.395 52.3874 115.346 51.3294 115.248 50.0273C115.15 48.7253 114.988 47.4069 114.76 46.0723C114.532 44.7051 114.206 43.4355 113.783 42.2637C113.393 41.0918 112.888 40.2129 112.27 39.627C111.977 39.7246 111.618 39.7734 111.195 39.7734Z" fill="white"/>
<path d="M268.178 63.0645C268.178 64.041 267.901 65.0501 267.348 66.0918C266.827 67.1335 266.143 68.0938 265.297 68.9727C264.451 69.819 263.474 70.5189 262.367 71.0723C261.293 71.6257 260.219 71.9023 259.145 71.9023C257.615 71.9023 256.296 71.6094 255.189 71.0234C254.083 70.4049 253.122 69.5911 252.309 68.582C251.495 67.5404 250.827 66.3685 250.307 65.0664C249.818 63.7643 249.428 62.4297 249.135 61.0625C248.842 59.6628 248.63 58.2793 248.5 56.9121C248.402 55.5124 248.354 54.2428 248.354 53.1035C248.354 52.127 248.402 50.9714 248.5 49.6367C248.63 48.3021 248.826 46.9186 249.086 45.4863C249.379 44.054 249.77 42.638 250.258 41.2383C250.746 39.8385 251.348 38.5853 252.064 37.4785C252.813 36.3717 253.692 35.4766 254.701 34.793C255.743 34.1094 256.931 33.7676 258.266 33.7676C259.307 33.7676 260.235 33.9792 261.049 34.4023C261.895 34.8255 262.595 35.3952 263.148 36.1113C263.734 36.7949 264.174 37.5924 264.467 38.5039C264.792 39.4154 264.955 40.3594 264.955 41.3359C264.955 42.6055 264.662 43.9889 264.076 45.4863C263.49 46.9837 262.725 48.4323 261.781 49.832C260.87 51.2318 259.828 52.5013 258.656 53.6406C257.517 54.7474 256.378 55.5938 255.238 56.1797C255.303 56.7656 255.434 57.6283 255.629 58.7676C255.824 59.8743 256.085 60.9811 256.41 62.0879C256.768 63.1947 257.175 64.1549 257.631 64.9688C258.119 65.7826 258.689 66.1895 259.34 66.1895C259.665 66.1895 259.942 66.0918 260.17 65.8965C260.43 65.7012 260.658 65.4408 260.854 65.1152C261.049 64.7897 261.212 64.4316 261.342 64.041C261.505 63.6504 261.651 63.276 261.781 62.918L262.074 62.2344C262.139 62.1367 262.172 62.0716 262.172 62.0391C262.204 62.0065 262.237 61.9577 262.27 61.8926C262.497 61.4694 262.709 61.0788 262.904 60.7207C263.132 60.3626 263.441 60.0534 263.832 59.793H263.783C263.913 59.6628 264.044 59.5977 264.174 59.5977C264.337 59.5651 264.483 59.5488 264.613 59.5488C264.971 59.5488 265.362 59.6628 265.785 59.8906C266.208 60.1185 266.599 60.4115 266.957 60.7695C267.315 61.0951 267.608 61.4694 267.836 61.8926C268.064 62.2832 268.178 62.6738 268.178 63.0645ZM258.51 41.5312C258.51 41.2057 258.493 40.8639 258.461 40.5059C258.428 40.1478 258.347 39.8385 258.217 39.5781C257.761 40.1315 257.354 40.7988 256.996 41.5801C256.671 42.3288 256.394 43.1263 256.166 43.9727C255.938 44.7865 255.743 45.6165 255.58 46.4629C255.45 47.3092 255.352 48.0905 255.287 48.8066C256.133 47.7975 256.882 46.6582 257.533 45.3887C258.184 44.0866 258.51 42.8008 258.51 41.5312ZM292.885 44.4121C292.885 45.7467 292.82 47.2279 292.689 48.8555C292.559 50.4505 292.364 52.1107 292.104 53.8359C291.843 55.5612 291.485 57.3027 291.029 59.0605C290.606 60.7858 290.085 62.446 289.467 64.041C288.848 65.6361 288.116 67.1172 287.27 68.4844C286.456 69.819 285.528 70.9421 284.486 71.8535C283.738 72.5046 282.891 73.0254 281.947 73.416C281.036 73.8392 280.092 74.0508 279.115 74.0508C278.757 74.0508 278.383 73.9857 277.992 73.8555C277.602 73.7578 277.309 73.4974 277.113 73.0742C276.397 73.0091 275.681 72.8626 274.965 72.6348C274.281 72.4395 273.712 71.9837 273.256 71.2676C273.158 71.0397 273.077 70.763 273.012 70.4375C272.947 70.112 272.882 69.7702 272.816 69.4121C272.784 69.2493 272.751 69.1029 272.719 68.9727C272.686 68.8099 272.654 68.6634 272.621 68.5332C271.677 62.6738 271.026 56.8145 270.668 50.9551C270.342 45.0957 270.18 39.1875 270.18 33.2305C270.18 32.7096 270.18 31.7982 270.18 30.4961C270.18 29.194 270.18 27.7129 270.18 26.0527C270.212 24.3926 270.229 22.651 270.229 20.8281C270.261 19.0052 270.294 17.2962 270.326 15.7012C270.359 14.1061 270.408 12.7389 270.473 11.5996C270.538 10.4277 270.603 9.67904 270.668 9.35352C270.798 8.89779 270.977 8.52344 271.205 8.23047C271.433 7.9375 271.824 7.79102 272.377 7.79102C273.907 7.79102 274.997 8.2793 275.648 9.25586C276.332 10.1999 276.674 11.3717 276.674 12.7715V25.3203C276.674 26.8503 276.674 28.2337 276.674 29.4707C276.674 30.6751 276.674 31.8633 276.674 33.0352C276.706 34.1745 276.739 35.3626 276.771 36.5996C276.804 37.804 276.853 39.1549 276.918 40.6523C277.309 39.7734 277.781 38.9108 278.334 38.0645C278.92 37.2181 279.571 36.4531 280.287 35.7695C281.003 35.0859 281.801 34.5326 282.68 34.1094C283.559 33.6862 284.535 33.4746 285.609 33.4746C287.172 33.4746 288.425 33.8164 289.369 34.5C290.346 35.1836 291.078 36.0625 291.566 37.1367C292.087 38.1784 292.429 39.3503 292.592 40.6523C292.787 41.9544 292.885 43.2077 292.885 44.4121ZM286.146 43.2891C286.146 42.638 286.114 41.9219 286.049 41.1406C286.016 40.3594 285.821 39.6758 285.463 39.0898C285.17 39.3177 284.91 39.5618 284.682 39.8223C284.486 40.0827 284.275 40.3757 284.047 40.7012L283.949 40.8477V40.7988C283.038 42.2962 282.289 44.0378 281.703 46.0234C281.15 48.0091 280.694 50.0762 280.336 52.2246C280.01 54.3405 279.783 56.4564 279.652 58.5723C279.522 60.6556 279.457 62.5436 279.457 64.2363C279.457 64.5944 279.457 65.1315 279.457 65.8477C279.49 66.5312 279.555 67.1009 279.652 67.5566C280.922 66.4824 281.964 64.9199 282.777 62.8691C283.624 60.7858 284.291 58.556 284.779 56.1797C285.3 53.7708 285.658 51.4108 285.854 49.0996C286.049 46.7884 286.146 44.8516 286.146 43.2891ZM308.852 73.416C308.852 73.8717 308.738 74.2461 308.51 74.5391C308.282 74.832 307.989 75.0599 307.631 75.2227C307.305 75.418 306.931 75.5482 306.508 75.6133C306.117 75.7109 305.759 75.7598 305.434 75.7598C304.294 75.7598 303.301 75.4342 302.455 74.7832C301.609 74.1322 300.876 73.2858 300.258 72.2441C299.639 71.235 299.135 70.0794 298.744 68.7773C298.354 67.4427 298.028 66.1243 297.768 64.8223C297.507 63.4876 297.312 62.2181 297.182 61.0137C297.051 59.7767 296.954 58.7188 296.889 57.8398C296.596 54.8125 296.384 51.7363 296.254 48.6113C296.156 45.4863 296.107 42.3939 296.107 39.334C296.107 30.9681 296.4 22.6836 296.986 14.4805C296.986 14.3503 296.986 14.2038 296.986 14.041C297.019 13.8783 297.035 13.7155 297.035 13.5527C297.068 12.8691 297.1 12.0879 297.133 11.209C297.165 10.2975 297.214 9.40234 297.279 8.52344C297.344 7.64453 297.41 6.84701 297.475 6.13086C297.572 5.38216 297.686 4.86133 297.816 4.56836V4.61719C297.947 4.16146 298.126 3.81966 298.354 3.5918C298.581 3.36393 298.972 3.25 299.525 3.25C300.697 3.25 301.69 3.64062 302.504 4.42188C303.318 5.20312 303.725 6.17969 303.725 7.35156C303.725 7.61198 303.708 7.8724 303.676 8.13281C303.676 8.36068 303.66 8.58854 303.627 8.81641C303.594 9.04427 303.562 9.27214 303.529 9.5C303.529 9.69531 303.529 9.87435 303.529 10.0371C303.432 11.3066 303.35 12.5762 303.285 13.8457C303.253 15.0827 303.204 16.3359 303.139 17.6055C302.976 20.4049 302.846 23.2044 302.748 26.0039C302.683 28.7708 302.65 31.5703 302.65 34.4023C302.65 35.6068 302.667 37.1855 302.699 39.1387C302.732 41.0918 302.797 43.224 302.895 45.5352C302.992 47.8138 303.122 50.1738 303.285 52.6152C303.48 55.0566 303.725 57.3841 304.018 59.5977C304.311 61.8112 304.652 63.8132 305.043 65.6035C305.466 67.3939 305.954 68.7773 306.508 69.7539C306.801 69.8841 307.077 70.0957 307.338 70.3887C307.631 70.6491 307.875 70.9583 308.07 71.3164C308.298 71.6419 308.477 71.9837 308.607 72.3418C308.77 72.7324 308.852 73.0905 308.852 73.416ZM331.459 51.9805C331.459 54.8125 331.215 57.6445 330.727 60.4766C330.271 63.276 329.311 65.929 327.846 68.4355C327.39 69.1842 326.869 69.9167 326.283 70.6328C325.697 71.3164 325.046 71.9349 324.33 72.4883C323.646 73.0742 322.882 73.5299 322.035 73.8555C321.221 74.2135 320.359 74.3926 319.447 74.3926C318.015 74.3926 316.762 74.0508 315.688 73.3672C314.646 72.7161 313.734 71.8535 312.953 70.7793C312.204 69.6725 311.57 68.4355 311.049 67.0684C310.561 65.6686 310.17 64.2526 309.877 62.8203C309.617 61.3555 309.421 59.9395 309.291 58.5723C309.193 57.2051 309.145 56.0007 309.145 54.959C309.145 53.7871 309.193 52.5013 309.291 51.1016C309.389 49.7018 309.551 48.2695 309.779 46.8047C310.04 45.3398 310.365 43.8913 310.756 42.459C311.179 41.0267 311.716 39.6921 312.367 38.4551C313.018 37.1855 313.799 36.0625 314.711 35.0859C315.622 34.0768 316.68 33.2793 317.885 32.6934V32.7422C318.926 32.1888 319.968 31.9121 321.01 31.9121C321.661 31.9121 322.165 32.0586 322.523 32.3516C322.882 32.612 323.044 33.0677 323.012 33.7188C324.802 34.0443 326.251 34.9069 327.357 36.3066C328.464 37.7064 329.311 39.334 329.896 41.1895C330.515 43.0449 330.922 44.9492 331.117 46.9023C331.345 48.8555 331.459 50.5482 331.459 51.9805ZM320.424 39.7734C319.87 39.7734 319.35 39.5618 318.861 39.1387C318.243 40.0827 317.722 41.1732 317.299 42.4102C316.876 43.6146 316.534 44.8678 316.273 46.1699C316.046 47.4395 315.883 48.7253 315.785 50.0273C315.688 51.3294 315.639 52.5501 315.639 53.6895C315.639 54.6335 315.688 55.8542 315.785 57.3516C315.883 58.8164 316.062 60.2975 316.322 61.7949C316.615 63.2923 317.006 64.6921 317.494 65.9941C318.015 67.2962 318.682 68.2565 319.496 68.875C320.505 68.2891 321.335 67.3613 321.986 66.0918C322.67 64.7897 323.207 63.3737 323.598 61.8438C323.988 60.3138 324.249 58.7676 324.379 57.2051C324.542 55.6426 324.623 54.3079 324.623 53.2012C324.623 52.3874 324.574 51.3294 324.477 50.0273C324.379 48.7253 324.216 47.4069 323.988 46.0723C323.76 44.7051 323.435 43.4355 323.012 42.2637C322.621 41.0918 322.117 40.2129 321.498 39.627C321.205 39.7246 320.847 39.7734 320.424 39.7734ZM356.264 51.9805C356.264 54.8125 356.02 57.6445 355.531 60.4766C355.076 63.276 354.115 65.929 352.65 68.4355C352.195 69.1842 351.674 69.9167 351.088 70.6328C350.502 71.3164 349.851 71.9349 349.135 72.4883C348.451 73.0742 347.686 73.5299 346.84 73.8555C346.026 74.2135 345.163 74.3926 344.252 74.3926C342.82 74.3926 341.566 74.0508 340.492 73.3672C339.451 72.7161 338.539 71.8535 337.758 70.7793C337.009 69.6725 336.374 68.4355 335.854 67.0684C335.365 65.6686 334.975 64.2526 334.682 62.8203C334.421 61.3555 334.226 59.9395 334.096 58.5723C333.998 57.2051 333.949 56.0007 333.949 54.959C333.949 53.7871 333.998 52.5013 334.096 51.1016C334.193 49.7018 334.356 48.2695 334.584 46.8047C334.844 45.3398 335.17 43.8913 335.561 42.459C335.984 41.0267 336.521 39.6921 337.172 38.4551C337.823 37.1855 338.604 36.0625 339.516 35.0859C340.427 34.0768 341.485 33.2793 342.689 32.6934V32.7422C343.731 32.1888 344.773 31.9121 345.814 31.9121C346.465 31.9121 346.97 32.0586 347.328 32.3516C347.686 32.612 347.849 33.0677 347.816 33.7188C349.607 34.0443 351.055 34.9069 352.162 36.3066C353.269 37.7064 354.115 39.334 354.701 41.1895C355.32 43.0449 355.727 44.9492 355.922 46.9023C356.15 48.8555 356.264 50.5482 356.264 51.9805ZM345.229 39.7734C344.675 39.7734 344.154 39.5618 343.666 39.1387C343.048 40.0827 342.527 41.1732 342.104 42.4102C341.68 43.6146 341.339 44.8678 341.078 46.1699C340.85 47.4395 340.688 48.7253 340.59 50.0273C340.492 51.3294 340.443 52.5501 340.443 53.6895C340.443 54.6335 340.492 55.8542 340.59 57.3516C340.688 58.8164 340.867 60.2975 341.127 61.7949C341.42 63.2923 341.811 64.6921 342.299 65.9941C342.82 67.2962 343.487 68.2565 344.301 68.875C345.31 68.2891 346.14 67.3613 346.791 66.0918C347.475 64.7897 348.012 63.3737 348.402 61.8438C348.793 60.3138 349.053 58.7676 349.184 57.2051C349.346 55.6426 349.428 54.3079 349.428 53.2012C349.428 52.3874 349.379 51.3294 349.281 50.0273C349.184 48.7253 349.021 47.4069 348.793 46.0723C348.565 44.7051 348.24 43.4355 347.816 42.2637C347.426 41.0918 346.921 40.2129 346.303 39.627C346.01 39.7246 345.652 39.7734 345.229 39.7734ZM367.885 71.7559C367.885 72.5046 367.657 72.9928 367.201 73.2207C366.778 73.4486 366.257 73.5625 365.639 73.5625C365.085 73.5625 364.532 73.5137 363.979 73.416C363.458 73.3509 362.953 73.2044 362.465 72.9766C362.009 72.7487 361.602 72.4395 361.244 72.0488C360.919 71.6582 360.691 71.1536 360.561 70.5352C360.105 68.582 359.844 66.6777 359.779 64.8223C359.714 62.9342 359.682 60.9974 359.682 59.0117V53.0059C359.682 50.2715 359.796 47.4395 360.023 44.5098C360.251 41.5475 360.495 38.6992 360.756 35.9648C360.756 35.8672 360.772 35.7533 360.805 35.623C360.837 35.4928 360.854 35.3952 360.854 35.3301C360.886 34.972 360.935 34.5814 361 34.1582C361.065 33.735 361.163 33.3607 361.293 33.0352C361.456 32.6771 361.667 32.3841 361.928 32.1562C362.221 31.9284 362.595 31.8145 363.051 31.8145C363.572 31.8145 364.06 31.9284 364.516 32.1562C365.004 32.3516 365.427 32.6283 365.785 32.9863C366.143 33.3118 366.42 33.7188 366.615 34.207C366.843 34.6953 366.957 35.1999 366.957 35.7207C366.957 36.3717 366.924 37.0553 366.859 37.7715C366.827 38.4551 366.778 39.1224 366.713 39.7734C366.648 40.2292 366.599 40.571 366.566 40.7988C366.566 41.0267 366.55 41.401 366.518 41.9219C366.908 41.2383 367.348 40.5547 367.836 39.8711C368.357 39.1549 368.926 38.5365 369.545 38.0156C370.163 37.4622 370.831 37.0228 371.547 36.6973C372.296 36.3392 373.093 36.1602 373.939 36.1602C374.786 36.1602 375.486 36.3066 376.039 36.5996C376.592 36.86 377.032 37.2344 377.357 37.7227C377.683 38.1784 377.911 38.7318 378.041 39.3828C378.171 40.0339 378.236 40.7174 378.236 41.4336C378.236 41.8893 378.22 42.3288 378.188 42.752C378.188 43.1751 378.171 43.5983 378.139 44.0215C378.106 44.4447 378.074 44.8678 378.041 45.291C378.041 45.6816 378.041 46.1048 378.041 46.5605C378.041 47.4069 378.057 48.2207 378.09 49.002C378.155 49.7507 378.22 50.5482 378.285 51.3945C378.611 50.3203 379.001 49.0996 379.457 47.7324C379.945 46.3652 380.499 44.9655 381.117 43.5332C381.768 42.1009 382.468 40.7012 383.217 39.334C383.998 37.9342 384.828 36.6973 385.707 35.623C386.618 34.5488 387.595 33.6862 388.637 33.0352C389.678 32.3516 390.769 32.0098 391.908 32.0098C393.699 32.0098 394.952 32.5306 395.668 33.5723C396.417 34.6139 396.791 35.9486 396.791 37.5762C396.791 38.0319 396.775 38.5202 396.742 39.041C396.71 39.5293 396.661 40.0013 396.596 40.457C396.433 42.2148 396.303 44.0215 396.205 45.877C396.14 47.7324 396.107 49.5391 396.107 51.2969V52.2246C396.107 54.5033 396.205 56.6517 396.4 58.6699C396.596 60.6882 396.986 62.8203 397.572 65.0664L397.963 66.3848C398.093 66.8405 398.24 67.3451 398.402 67.8984C398.598 68.4518 398.76 68.9889 398.891 69.5098C399.021 70.0306 399.135 70.5189 399.232 70.9746C399.33 71.4303 399.379 71.7884 399.379 72.0488C399.379 72.7324 399.135 73.1882 398.646 73.416C398.158 73.6439 397.654 73.7578 397.133 73.7578C396.807 73.7578 396.433 73.7415 396.01 73.709C395.587 73.709 395.163 73.6602 394.74 73.5625C394.35 73.4974 393.959 73.3835 393.568 73.2207C393.21 73.0579 392.917 72.8464 392.689 72.5859V72.6348C392.396 72.3418 392.185 71.9837 392.055 71.5605C391.924 71.1374 391.827 70.7142 391.762 70.291L391.664 69.8516C391.208 68.0938 390.818 66.515 390.492 65.1152C390.199 63.7155 389.955 62.3158 389.76 60.916C389.564 59.5163 389.418 58.0677 389.32 56.5703C389.255 55.0729 389.223 53.3477 389.223 51.3945C389.223 49.7344 389.288 48.0417 389.418 46.3164C389.581 44.5911 389.743 42.8984 389.906 41.2383C389.906 41.0755 389.906 40.8965 389.906 40.7012C389.939 40.4733 389.971 40.278 390.004 40.1152C388.767 42.0358 387.676 44.1517 386.732 46.4629C385.821 48.7415 384.991 51.0853 384.242 53.4941C383.526 55.903 382.891 58.3281 382.338 60.7695C381.817 63.1784 381.345 65.4733 380.922 67.6543C380.922 67.6868 380.987 67.8822 381.117 68.2402C381.28 68.5658 381.426 68.9564 381.557 69.4121C381.719 69.8353 381.866 70.2585 381.996 70.6816C382.126 71.0723 382.191 71.3327 382.191 71.4629C382.191 72.2116 381.947 72.6673 381.459 72.8301C380.971 72.9928 380.466 73.0742 379.945 73.0742C379.555 73.0742 379.132 73.0579 378.676 73.0254C378.22 72.9928 377.764 72.9115 377.309 72.7812C376.885 72.651 376.479 72.472 376.088 72.2441C375.73 72.0488 375.437 71.7559 375.209 71.3652C375.014 71.0397 374.786 70.2747 374.525 69.0703C374.265 67.8333 373.988 66.401 373.695 64.7734C373.402 63.1133 373.126 61.3392 372.865 59.4512C372.605 57.5632 372.361 55.7728 372.133 54.0801C371.905 52.3874 371.726 50.9062 371.596 49.6367C371.465 48.3672 371.4 47.5046 371.4 47.0488V46.3164C370.359 48.5625 369.496 50.9714 368.812 53.543C368.129 56.1146 367.608 58.6374 367.25 61.1113L367.055 61.9902C366.99 62.2507 366.941 62.5111 366.908 62.7715C366.876 62.9993 366.859 63.2272 366.859 63.4551C366.859 63.8132 366.892 64.2526 366.957 64.7734C367.055 65.2943 367.169 65.8639 367.299 66.4824C367.462 67.3288 367.592 68.2077 367.689 69.1191C367.82 69.998 367.885 70.877 367.885 71.7559Z" fill="white"/>
<path d="M452.002 56.5703C452.002 58.9792 451.611 61.2578 450.83 63.4062C450.049 65.5547 448.926 67.4427 447.461 69.0703C446.029 70.6654 444.287 71.9349 442.236 72.8789C440.186 73.8555 437.907 74.3438 435.4 74.3438C433.187 74.3438 431.136 73.9857 429.248 73.2695C427.393 72.5859 425.781 71.6094 424.414 70.3398C423.047 69.0703 421.973 67.5241 421.191 65.7012C420.443 63.8783 420.068 61.8438 420.068 59.5977C420.068 59.1419 420.085 58.5723 420.117 57.8887C420.15 57.2051 420.247 56.554 420.41 55.9355C420.605 55.2845 420.866 54.7474 421.191 54.3242C421.549 53.8685 422.054 53.6406 422.705 53.6406C423.226 53.6406 423.796 53.7546 424.414 53.9824C425.065 54.1777 425.667 54.4544 426.221 54.8125C426.774 55.1706 427.23 55.61 427.588 56.1309C427.979 56.6191 428.174 57.1562 428.174 57.7422V60.5742C428.174 62.8203 428.776 64.6595 429.98 66.0918C431.217 67.4915 432.992 68.1914 435.303 68.1914C436.93 68.1914 438.33 67.8171 439.502 67.0684C440.674 66.3197 441.618 65.3594 442.334 64.1875C443.083 63.0156 443.62 61.7135 443.945 60.2812C444.303 58.8164 444.482 57.3841 444.482 55.9844C444.482 53.25 443.913 50.597 442.773 48.0254C441.667 45.4538 440.267 42.9473 438.574 40.5059C436.882 38.0319 435.042 35.6068 433.057 33.2305C431.071 30.8542 429.232 28.4941 427.539 26.1504C425.846 23.8066 424.43 21.4629 423.291 19.1191C422.184 16.7754 421.631 14.3828 421.631 11.9414C421.631 9.95573 422.021 8.24674 422.803 6.81445C423.617 5.34961 424.674 4.16146 425.977 3.25C427.311 2.30599 428.809 1.6224 430.469 1.19922C432.161 0.74349 433.903 0.515625 435.693 0.515625C437.874 0.515625 439.827 0.82487 441.553 1.44336C443.278 2.06185 444.743 2.95703 445.947 4.12891C447.152 5.30078 448.063 6.74935 448.682 8.47461C449.333 10.1673 449.658 12.1042 449.658 14.2852C449.658 14.6107 449.642 15.0176 449.609 15.5059C449.577 15.9941 449.495 16.4824 449.365 16.9707C449.235 17.4264 449.04 17.8333 448.779 18.1914C448.519 18.5169 448.161 18.6797 447.705 18.6797C447.054 18.6797 446.403 18.5169 445.752 18.1914C445.199 17.8984 444.743 17.6217 444.385 17.3613C444.059 17.0684 443.799 16.7591 443.604 16.4336C443.408 16.0755 443.262 15.6849 443.164 15.2617C443.066 14.8385 442.985 14.3177 442.92 13.6992C442.757 12.5273 442.546 11.4694 442.285 10.5254C442.025 9.58138 441.634 8.78385 441.113 8.13281C440.592 7.48177 439.909 6.97721 439.062 6.61914C438.216 6.26107 437.126 6.08203 435.791 6.08203C434.847 6.08203 433.936 6.17969 433.057 6.375C432.21 6.57031 431.462 6.89583 430.811 7.35156C430.192 7.80729 429.688 8.40951 429.297 9.1582C428.939 9.87435 428.76 10.7695 428.76 11.8438C428.76 13.3411 429.085 14.8711 429.736 16.4336C430.42 17.9961 431.299 19.5911 432.373 21.2188C433.48 22.8464 434.717 24.5228 436.084 26.248C437.484 27.9408 438.916 29.6986 440.381 31.5215C441.846 33.3444 443.262 35.2324 444.629 37.1855C446.029 39.1061 447.266 41.1081 448.34 43.1914C449.447 45.2747 450.326 47.4395 450.977 49.6855C451.66 51.8991 452.002 54.194 452.002 56.5703ZM465.332 70.7793C465.332 71.1374 465.251 71.4466 465.088 71.707C464.925 71.9349 464.714 72.1139 464.453 72.2441C464.225 72.3743 463.965 72.4557 463.672 72.4883C463.411 72.5534 463.151 72.5859 462.891 72.5859C462.533 72.5859 462.109 72.5371 461.621 72.4395C461.165 72.3743 460.71 72.2604 460.254 72.0977C459.798 71.9349 459.375 71.7396 458.984 71.5117C458.626 71.2513 458.35 70.9421 458.154 70.584C457.959 70.2585 457.78 69.6562 457.617 68.7773C457.487 67.8659 457.373 66.8242 457.275 65.6523C457.178 64.4479 457.096 63.1784 457.031 61.8438C456.966 60.4766 456.901 59.1745 456.836 57.9375C456.803 56.7005 456.771 55.5938 456.738 54.6172C456.738 53.6081 456.738 52.8594 456.738 52.3711C456.738 50.0924 456.771 47.8952 456.836 45.7793C456.934 43.6309 457.031 41.4336 457.129 39.1875C456.966 39.1875 456.803 39.2038 456.641 39.2363C456.478 39.2689 456.315 39.2852 456.152 39.2852C455.729 39.3503 455.29 39.3991 454.834 39.4316C454.411 39.4642 453.971 39.4805 453.516 39.4805C452.962 39.4805 452.474 39.3828 452.051 39.1875C451.628 38.9922 451.416 38.5527 451.416 37.8691C451.416 37.0553 451.595 36.4043 451.953 35.916C452.311 35.4277 452.767 35.0534 453.32 34.793C453.874 34.5 454.476 34.3047 455.127 34.207C455.778 34.0768 456.413 33.9792 457.031 33.9141C457.129 33.9141 457.194 33.9141 457.227 33.9141C457.259 33.8815 457.324 33.8652 457.422 33.8652C457.454 33.4746 457.487 33.0026 457.52 32.4492C457.552 31.8633 457.585 31.2285 457.617 30.5449C457.65 29.4707 457.699 28.3314 457.764 27.127C457.829 25.89 457.894 24.7181 457.959 23.6113C458.024 22.472 458.105 21.4792 458.203 20.6328C458.301 19.7539 458.398 19.1354 458.496 18.7773C458.659 18.3542 458.838 18.0124 459.033 17.752C459.261 17.4915 459.668 17.3613 460.254 17.3613C461.556 17.3613 462.565 17.7845 463.281 18.6309C463.997 19.4772 464.355 20.5189 464.355 21.7559C464.355 23.1882 464.307 24.6204 464.209 26.0527C464.144 27.485 464.079 28.9336 464.014 30.3984L463.867 32.8887C464.681 32.791 465.495 32.6445 466.309 32.4492C467.09 32.2865 467.871 32.14 468.652 32.0098C469.466 31.8796 470.247 31.8145 470.996 31.8145C471.647 31.8145 472.152 31.9935 472.51 32.3516C472.868 32.6771 473.047 33.1654 473.047 33.8164C473.047 34.5326 472.917 35.2324 472.656 35.916C472.396 36.5996 471.94 37.1204 471.289 37.4785H471.338C471.208 37.5436 470.817 37.6413 470.166 37.7715C469.515 37.8691 468.766 37.9668 467.92 38.0645C467.106 38.1621 466.292 38.2598 465.479 38.3574C464.697 38.4551 464.111 38.5202 463.721 38.5527H463.672C463.607 40.3757 463.558 42.1823 463.525 43.9727C463.493 45.7305 463.477 47.5208 463.477 49.3438C463.477 51.8503 463.542 54.5195 463.672 57.3516C463.835 60.151 464.095 62.8203 464.453 65.3594L464.844 67.5566C464.974 68.11 465.088 68.6634 465.186 69.2168C465.283 69.7376 465.332 70.2585 465.332 70.7793ZM494.629 39.7734C494.629 40.099 494.596 40.4408 494.531 40.7988C494.466 41.1569 494.401 41.4824 494.336 41.7754C494.271 42.1335 494.206 42.4753 494.141 42.8008C494.076 43.0938 494.043 43.3867 494.043 43.6797C494.043 46.707 494.092 49.7507 494.189 52.8105C494.32 55.8379 494.645 58.8815 495.166 61.9414C495.329 63.1133 495.524 64.2526 495.752 65.3594C495.98 66.4661 496.24 67.5892 496.533 68.7285L496.631 69.0215V68.9238C496.729 69.1517 496.81 69.3958 496.875 69.6562C496.973 69.8841 497.021 70.1283 497.021 70.3887C497.021 70.7467 496.924 71.0397 496.729 71.2676C496.566 71.4954 496.354 71.6745 496.094 71.8047C495.833 71.9349 495.54 72.0163 495.215 72.0488C494.922 72.0814 494.645 72.0977 494.385 72.0977C493.311 72.0977 492.448 71.9837 491.797 71.7559C491.178 71.4954 490.674 71.1536 490.283 70.7305C489.893 70.2747 489.6 69.7376 489.404 69.1191C489.242 68.5007 489.095 67.8171 488.965 67.0684L488.818 66.1895C488.688 65.7337 488.607 65.2454 488.574 64.7246C488.542 64.4642 488.509 64.3503 488.477 64.3828C488.477 64.3828 488.46 64.2526 488.428 63.9922C487.972 64.806 487.435 65.6849 486.816 66.6289C486.23 67.5404 485.547 68.403 484.766 69.2168C484.017 69.998 483.203 70.6654 482.324 71.2188C481.445 71.7396 480.501 72 479.492 72C478.092 72 477.002 71.5768 476.221 70.7305C475.472 69.8841 474.919 68.8587 474.561 67.6543C474.202 66.4173 473.991 65.1478 473.926 63.8457C473.861 62.5111 473.828 61.3555 473.828 60.3789C473.828 56.668 473.942 52.9896 474.17 49.3438C474.43 45.6979 474.707 42.0358 475 38.3574C475 38.2598 475 38.1296 475 37.9668C475.033 37.804 475.049 37.6738 475.049 37.5762C475.081 37.1204 475.114 36.6973 475.146 36.3066C475.179 35.916 475.26 35.5417 475.391 35.1836V35.2324C475.521 34.7116 475.7 34.3372 475.928 34.1094C476.188 33.8815 476.579 33.7676 477.1 33.7676C477.588 33.7676 478.076 33.8652 478.564 34.0605C479.053 34.2233 479.492 34.4674 479.883 34.793C480.273 35.0859 480.583 35.444 480.811 35.8672C481.071 36.2904 481.201 36.7624 481.201 37.2832C481.201 37.5436 481.201 37.8529 481.201 38.2109C481.201 38.569 481.185 38.8783 481.152 39.1387C481.152 39.3665 481.136 39.6595 481.104 40.0176C481.104 40.3431 481.104 40.6198 481.104 40.8477C480.843 43.9727 480.648 47.0814 480.518 50.1738C480.387 53.2337 480.322 56.3424 480.322 59.5C480.322 60.3789 480.322 61.2578 480.322 62.1367C480.355 63.0156 480.452 63.8945 480.615 64.7734C481.689 63.4062 482.617 61.6647 483.398 59.5488C484.18 57.4004 484.831 55.138 485.352 52.7617C485.905 50.3529 486.344 47.9766 486.67 45.6328C487.028 43.2565 487.288 41.1569 487.451 39.334C487.451 39.2363 487.451 39.1224 487.451 38.9922C487.484 38.862 487.5 38.748 487.5 38.6504C487.533 38.2923 487.565 37.9505 487.598 37.625C487.63 37.2995 487.744 36.9902 487.939 36.6973C487.939 36.4043 487.956 36.0951 487.988 35.7695C488.021 35.444 488.102 35.151 488.232 34.8906C488.363 34.5977 488.542 34.3698 488.77 34.207C489.03 34.0443 489.388 33.9629 489.844 33.9629C491.146 33.9629 492.171 34.3698 492.92 35.1836C493.669 35.9648 494.076 36.974 494.141 38.2109C494.303 38.4714 494.417 38.7318 494.482 38.9922C494.58 39.2201 494.629 39.4805 494.629 39.7734ZM522.07 70.4863C522.07 70.8444 521.989 71.1536 521.826 71.4141C521.663 71.6419 521.452 71.8372 521.191 72C520.964 72.1302 520.703 72.2279 520.41 72.293C520.15 72.3581 519.889 72.3906 519.629 72.3906C519.238 72.3906 518.815 72.3418 518.359 72.2441C517.904 72.1465 517.448 72.0163 516.992 71.8535C516.536 71.6582 516.113 71.4303 515.723 71.1699C515.365 70.877 515.088 70.5514 514.893 70.1934C514.697 69.8353 514.551 69.3958 514.453 68.875C514.388 68.3216 514.323 67.7682 514.258 67.2148C513.932 67.9961 513.542 68.7611 513.086 69.5098C512.663 70.2585 512.142 70.9258 511.523 71.5117C510.905 72.0651 510.205 72.5046 509.424 72.8301C508.675 73.1882 507.829 73.3672 506.885 73.3672C505.225 73.3672 503.874 72.9766 502.832 72.1953C501.823 71.4141 501.025 70.4375 500.439 69.2656C499.886 68.0612 499.512 66.7591 499.316 65.3594C499.154 63.9271 499.072 62.5599 499.072 61.2578C499.072 60.1836 499.121 58.9629 499.219 57.5957C499.316 56.2285 499.447 54.8288 499.609 53.3965C499.772 51.9642 499.967 50.5807 500.195 49.2461C500.423 47.8789 500.667 46.6745 500.928 45.6328C501.253 44.4284 501.644 43.11 502.1 41.6777C502.588 40.2129 503.19 38.862 503.906 37.625C504.655 36.3555 505.566 35.2812 506.641 34.4023C507.715 33.5234 509.001 33.0352 510.498 32.9375C510.4 30.3008 510.254 27.8757 510.059 25.6621C509.896 23.416 509.717 21.1211 509.521 18.7773L509.033 13.3574L508.838 11.4043C508.773 10.8835 508.724 10.3626 508.691 9.8418C508.659 9.28841 508.643 8.7513 508.643 8.23047C508.643 7.48177 508.838 6.96094 509.229 6.66797C509.652 6.375 510.189 6.22852 510.84 6.22852C512.272 6.22852 513.363 6.4401 514.111 6.86328C514.86 7.28646 515.381 7.85612 515.674 8.57227C515.999 9.28841 516.178 10.1348 516.211 11.1113C516.243 12.0553 516.26 13.0807 516.26 14.1875C516.26 14.9036 516.341 15.7174 516.504 16.6289L516.748 18.4355L517.139 23.416C517.204 24.1973 517.269 24.9785 517.334 25.7598C517.399 26.541 517.464 27.3223 517.529 28.1035L518.555 38.6016L520.508 58.2305L520.654 60.0371C520.785 61.3717 520.898 62.7552 520.996 64.1875C521.126 65.6198 521.354 67.0358 521.68 68.4355C521.777 68.7936 521.859 69.1354 521.924 69.4609C522.021 69.7865 522.07 70.1283 522.07 70.4863ZM510.693 41.9219C510.693 41.5638 510.677 41.1732 510.645 40.75C510.645 40.2943 510.645 39.8711 510.645 39.4805V38.1621C510.417 38.4876 510.124 38.9434 509.766 39.5293C509.408 40.0827 509.131 40.5872 508.936 41.043C508.415 42.1823 507.943 43.6471 507.52 45.4375C507.096 47.1953 506.722 49.0508 506.396 51.0039C506.104 52.9245 505.876 54.8125 505.713 56.668C505.55 58.4909 505.469 60.0208 505.469 61.2578C505.469 61.7135 505.469 62.2344 505.469 62.8203C505.501 63.4062 505.566 64.0085 505.664 64.627C505.762 65.2129 505.908 65.7826 506.104 66.3359C506.299 66.8893 506.559 67.3451 506.885 67.7031C507.373 67.0846 507.812 66.1406 508.203 64.8711C508.594 63.569 508.919 62.1042 509.18 60.4766C509.473 58.8164 509.717 57.0749 509.912 55.252C510.107 53.429 510.254 51.6712 510.352 49.9785C510.482 48.2533 510.563 46.6908 510.596 45.291C510.661 43.8587 510.693 42.7357 510.693 41.9219ZM531.738 30.9355C531.738 31.4889 531.608 31.8958 531.348 32.1562C531.12 32.3841 530.68 32.498 530.029 32.498C529.736 32.498 529.281 32.4655 528.662 32.4004C528.044 32.3027 527.409 32.1725 526.758 32.0098C526.139 31.847 525.586 31.6191 525.098 31.3262C524.642 31.0332 524.414 30.6751 524.414 30.252C524.414 30.1217 524.463 29.7637 524.561 29.1777C524.658 28.5592 524.772 27.9082 524.902 27.2246C525.065 26.541 525.195 25.9225 525.293 25.3691C525.423 24.8158 525.521 24.5065 525.586 24.4414V24.4902C525.749 24.2298 525.944 24.0671 526.172 24.002C526.4 23.9368 526.628 23.9043 526.855 23.9043C527.148 23.9043 527.523 23.9531 527.979 24.0508C528.467 24.1159 528.939 24.2298 529.395 24.3926C529.883 24.5228 530.322 24.7018 530.713 24.9297C531.104 25.1576 531.348 25.4017 531.445 25.6621C531.543 25.9225 531.592 26.2806 531.592 26.7363C531.624 27.1595 531.624 27.5501 531.592 27.9082C531.592 28.0384 531.576 28.2012 531.543 28.3965C531.543 28.5592 531.543 28.6895 531.543 28.7871C531.543 28.9499 531.543 29.1126 531.543 29.2754C531.576 29.4382 531.608 29.6009 531.641 29.7637C531.673 29.9264 531.689 30.1055 531.689 30.3008C531.722 30.4961 531.738 30.7077 531.738 30.9355ZM533.545 69.8516C533.545 70.6003 533.366 71.1374 533.008 71.4629C532.682 71.7559 532.145 71.9023 531.396 71.9023C531.006 71.9023 530.566 71.8535 530.078 71.7559C529.622 71.6582 529.167 71.528 528.711 71.3652C528.255 71.1699 527.832 70.9421 527.441 70.6816C527.051 70.4212 526.758 70.1283 526.562 69.8027C526.432 69.6074 526.318 69.0052 526.221 67.9961C526.123 66.987 526.042 65.7337 525.977 64.2363C525.944 62.7389 525.895 61.0625 525.83 59.207C525.798 57.3516 525.765 55.4798 525.732 53.5918C525.732 51.7038 525.732 49.8646 525.732 48.0742C525.732 46.2839 525.732 44.7214 525.732 43.3867V39.627C525.732 39.3014 525.732 38.9759 525.732 38.6504C525.765 38.3249 525.83 38.0482 525.928 37.8203C526.058 37.5599 526.237 37.3483 526.465 37.1855C526.725 37.0228 527.083 36.9414 527.539 36.9414C528.971 36.9414 530.013 37.3483 530.664 38.1621C531.348 38.9434 531.771 40.0013 531.934 41.3359C532.096 43.3216 532.21 45.3073 532.275 47.293C532.373 49.2461 532.454 51.2318 532.52 53.25C532.585 55.0729 532.633 56.8796 532.666 58.6699C532.731 60.4277 532.845 62.1855 533.008 63.9434C533.04 64.3014 533.073 64.6432 533.105 64.9688C533.138 65.2943 533.187 65.6198 533.252 65.9453C533.317 66.5964 533.382 67.2474 533.447 67.8984C533.512 68.5169 533.545 69.168 533.545 69.8516ZM559.18 51.9805C559.18 54.8125 558.936 57.6445 558.447 60.4766C557.992 63.276 557.031 65.929 555.566 68.4355C555.111 69.1842 554.59 69.9167 554.004 70.6328C553.418 71.3164 552.767 71.9349 552.051 72.4883C551.367 73.0742 550.602 73.5299 549.756 73.8555C548.942 74.2135 548.079 74.3926 547.168 74.3926C545.736 74.3926 544.482 74.0508 543.408 73.3672C542.367 72.7161 541.455 71.8535 540.674 70.7793C539.925 69.6725 539.29 68.4355 538.77 67.0684C538.281 65.6686 537.891 64.2526 537.598 62.8203C537.337 61.3555 537.142 59.9395 537.012 58.5723C536.914 57.2051 536.865 56.0007 536.865 54.959C536.865 53.7871 536.914 52.5013 537.012 51.1016C537.109 49.7018 537.272 48.2695 537.5 46.8047C537.76 45.3398 538.086 43.8913 538.477 42.459C538.9 41.0267 539.437 39.6921 540.088 38.4551C540.739 37.1855 541.52 36.0625 542.432 35.0859C543.343 34.0768 544.401 33.2793 545.605 32.6934V32.7422C546.647 32.1888 547.689 31.9121 548.73 31.9121C549.382 31.9121 549.886 32.0586 550.244 32.3516C550.602 32.612 550.765 33.0677 550.732 33.7188C552.523 34.0443 553.971 34.9069 555.078 36.3066C556.185 37.7064 557.031 39.334 557.617 41.1895C558.236 43.0449 558.643 44.9492 558.838 46.9023C559.066 48.8555 559.18 50.5482 559.18 51.9805ZM548.145 39.7734C547.591 39.7734 547.07 39.5618 546.582 39.1387C545.964 40.0827 545.443 41.1732 545.02 42.4102C544.596 43.6146 544.255 44.8678 543.994 46.1699C543.766 47.4395 543.604 48.7253 543.506 50.0273C543.408 51.3294 543.359 52.5501 543.359 53.6895C543.359 54.6335 543.408 55.8542 543.506 57.3516C543.604 58.8164 543.783 60.2975 544.043 61.7949C544.336 63.2923 544.727 64.6921 545.215 65.9941C545.736 67.2962 546.403 68.2565 547.217 68.875C548.226 68.2891 549.056 67.3613 549.707 66.0918C550.391 64.7897 550.928 63.3737 551.318 61.8438C551.709 60.3138 551.969 58.7676 552.1 57.2051C552.262 55.6426 552.344 54.3079 552.344 53.2012C552.344 52.3874 552.295 51.3294 552.197 50.0273C552.1 48.7253 551.937 47.4069 551.709 46.0723C551.481 44.7051 551.156 43.4355 550.732 42.2637C550.342 41.0918 549.837 40.2129 549.219 39.627C548.926 39.7246 548.568 39.7734 548.145 39.7734ZM579.248 36.209C579.248 36.5996 579.102 36.9251 578.809 37.1855C578.548 37.446 578.223 37.6738 577.832 37.8691C577.441 38.0319 577.035 38.1458 576.611 38.2109C576.221 38.276 575.895 38.3086 575.635 38.3086C575.244 38.3086 574.87 38.276 574.512 38.2109C574.154 38.1133 573.796 38.0156 573.438 37.918C573.079 37.8203 572.738 37.7389 572.412 37.6738C572.087 37.5762 571.745 37.5273 571.387 37.5273C570.898 37.5273 570.41 37.6087 569.922 37.7715C569.434 37.9342 568.994 38.1621 568.604 38.4551C568.213 38.748 567.887 39.1061 567.627 39.5293C567.399 39.9525 567.285 40.4245 567.285 40.9453C567.285 41.7266 567.448 42.5078 567.773 43.2891C568.099 44.0378 568.522 44.8027 569.043 45.584C569.596 46.3652 570.215 47.1628 570.898 47.9766C571.615 48.7578 572.363 49.5553 573.145 50.3691C574.089 51.4108 575.033 52.4688 575.977 53.543C576.953 54.6172 577.816 55.7402 578.564 56.9121C579.346 58.084 579.98 59.321 580.469 60.623C580.957 61.9251 581.201 63.2923 581.201 64.7246C581.201 65.9616 580.99 67.0684 580.566 68.0449C580.176 69.0215 579.606 69.8516 578.857 70.5352C578.141 71.2188 577.262 71.7396 576.221 72.0977C575.212 72.4883 574.105 72.6836 572.9 72.6836C572.575 72.6836 572.07 72.6185 571.387 72.4883C570.736 72.3581 569.987 72.179 569.141 71.9512C568.294 71.6908 567.415 71.4141 566.504 71.1211C565.625 70.8281 564.811 70.5189 564.062 70.1934C563.346 69.8353 562.744 69.4935 562.256 69.168C561.8 68.8099 561.572 68.4844 561.572 68.1914C561.572 67.8008 561.751 67.4102 562.109 67.0195C562.467 66.5964 562.891 66.222 563.379 65.8965C563.867 65.5384 564.372 65.2454 564.893 65.0176C565.446 64.7897 565.902 64.6758 566.26 64.6758C566.748 64.6758 567.253 64.7897 567.773 65.0176C568.327 65.2454 568.88 65.5059 569.434 65.7988C570.052 66.1243 570.671 66.4173 571.289 66.6777C571.94 66.9382 572.607 67.0684 573.291 67.0684C573.812 67.0684 574.105 66.8893 574.17 66.5312C574.268 66.1732 574.316 65.7663 574.316 65.3105C574.316 64.1712 574.121 63.097 573.73 62.0879C573.34 61.0462 572.835 60.0371 572.217 59.0605C571.598 58.084 570.882 57.14 570.068 56.2285C569.255 55.2845 568.441 54.3568 567.627 53.4453C566.781 52.5339 565.951 51.6224 565.137 50.7109C564.355 49.7995 563.656 48.8717 563.037 47.9277C562.419 46.9512 561.914 45.9583 561.523 44.9492C561.165 43.9401 560.986 42.8659 560.986 41.7266C560.986 40.3268 561.296 39.0736 561.914 37.9668C562.533 36.8275 563.33 35.8509 564.307 35.0371C565.316 34.2233 566.439 33.6048 567.676 33.1816C568.945 32.7259 570.215 32.498 571.484 32.498C571.908 32.498 572.559 32.5957 573.438 32.791C574.316 32.9538 575.179 33.1979 576.025 33.5234C576.872 33.849 577.62 34.2396 578.271 34.6953C578.923 35.151 579.248 35.6556 579.248 36.209Z" fill="white"/>
<rect width="63.2327" height="9.41579" transform="matrix(-0.107027 0.994256 -0.993894 -0.11034 150.633 21.2612)" fill="white"/>
<defs>
<linearGradient id="paint0_linear_18_61" x1="44.79" y1="9.79486" x2="44.79" y2="83.0554" gradientUnits="userSpaceOnUse">
<stop offset="0.9999" stop-color="#A14822"/>
<stop offset="1" stop-color="#D9D9D9"/>
</linearGradient>
<linearGradient id="paint1_linear_18_61" x1="195.953" y1="82.156" x2="195.718" y2="8.8959" gradientUnits="userSpaceOnUse">
<stop offset="0.9999" stop-color="#A14822"/>
<stop offset="1" stop-color="white"/>
</linearGradient>
</defs>
</svg>
